<?xml version="1.0" encoding="UTF-8" standalone="no"?>
<svg
   xmlns:dc="http://purl.org/dc/elements/1.1/"
   xmlns:cc="http://creativecommons.org/ns#"
   xmlns:rdf="http://www.w3.org/1999/02/22-rdf-syntax-ns#"
   xmlns:svg="http://www.w3.org/2000/svg"
   xmlns="http://www.w3.org/2000/svg"
   xmlns:xlink="http://www.w3.org/1999/xlink"
   viewBox="0 0 1000 666.66669"
   height="666.66669"
   width="1000"
   xml:space="preserve"
   id="svg834"
   version="1.1"><metadata
     id="metadata840"><rdf:RDF><cc:Work
         rdf:about=""><dc:format>image/svg+xml</dc:format><dc:type
           rdf:resource="http://purl.org/dc/dcmitype/StillImage" /><dc:title></dc:title></cc:Work></rdf:RDF></metadata><defs
     id="defs838"><pattern
       patternTransform="matrix(-0.552022,-0.552022,0.552022,-0.552022,-11.202,10.1969)"
       id="pattern2166"
       xlink:href="#pattern1916" /><pattern
       patternTransform="matrix(1.00442,0,0,1.00442,-1.7,62.4)"
       id="pattern2150"
       xlink:href="#pattern2118" /><clipPath
       id="clipPath1746"
       clipPathUnits="userSpaceOnUse"><path
         id="path1744"
         d="M 7500,0 H 0 v 5000 h 7500 z" /></clipPath><clipPath
       id="clipPath1752"
       clipPathUnits="userSpaceOnUse"><path
         id="path1750"
         d="M 959.074,4001.61 V 5004.89 H 1972.78 V 4001.61 Z" /></clipPath><clipPath
       id="clipPath1790"
       clipPathUnits="userSpaceOnUse"><path
         id="path1788"
         d="M 7500,0 H 0 v 5000 h 7500 z" /></clipPath><clipPath
       id="clipPath1796"
       clipPathUnits="userSpaceOnUse"><path
         id="path1794"
         d="M 6513.7,4015.65 H 7516.58 V 3002.36 H 6513.7 Z" /></clipPath><clipPath
       id="clipPath1842"
       clipPathUnits="userSpaceOnUse"><path
         id="path1840"
         d="M 0,289 H 288 V 0 H 0 Z" /></clipPath><pattern
       id="pattern1876"
       height="28.8008"
       width="28.7998"
       y="0"
       x="0"
       patternUnits="userSpaceOnUse"
       patternTransform="matrix(-7.10232,-7.10232,7.10232,-7.10232,-98.4531,11.0977)"><g
         id="g1874"
         transform="scale(0.1)"><g
           id="g1872"><g
             id="g1870"
             clip-path="url(#clipPath1842)"><path
               id="path1844"
               style="fill:#343537;fill-opacity:1;fill-rule:nonzero;stroke:none"
               d="m 287.996,-14.3945 c 7.953,0 14.399,6.44528 14.399,14.3945 0,7.94922 -6.446,14.3945 -14.399,14.3945 -7.957,0 -14.402,-6.44528 -14.402,-14.3945 0,-7.94922 6.445,-14.3945 14.402,-14.3945" /><path
               id="path1846"
               style="fill:#343537;fill-opacity:1;fill-rule:nonzero;stroke:none"
               d="m 143.992,-14.3945 c 7.953,0 14.406,6.44528 14.406,14.3945 0,7.94922 -6.453,14.3945 -14.406,14.3945 -7.957,0 -14.39,-6.44528 -14.39,-14.3945 0,-7.94922 6.433,-14.3945 14.39,-14.3945" /><path
               id="path1848"
               style="fill:#343537;fill-opacity:1;fill-rule:nonzero;stroke:none"
               d="m 287.996,129.59 c 7.953,0 14.399,6.465 14.399,14.414 0,7.949 -6.446,14.394 -14.399,14.394 -7.957,0 -14.402,-6.445 -14.402,-14.394 0,-7.949 6.445,-14.414 14.402,-14.414" /><path
               id="path1850"
               style="fill:#343537;fill-opacity:1;fill-rule:nonzero;stroke:none"
               d="m 143.992,129.59 c 7.953,0 14.406,6.465 14.406,14.414 0,7.949 -6.453,14.394 -14.406,14.394 -7.957,0 -14.39,-6.445 -14.39,-14.394 0,-7.949 6.433,-14.414 14.39,-14.414" /><path
               id="path1852"
               style="fill:#343537;fill-opacity:1;fill-rule:nonzero;stroke:none"
               d="m 71.9922,57.5977 c 7.9492,0 14.4062,6.4453 14.4062,14.3945 0,7.9687 -6.457,14.4141 -14.4062,14.4141 -7.9609,0 -14.3945,-6.4454 -14.3945,-14.4141 0,-7.9492 6.4336,-14.3945 14.3945,-14.3945" /><path
               id="path1854"
               style="fill:#343537;fill-opacity:1;fill-rule:nonzero;stroke:none"
               d="m 215.996,57.5977 c 7.949,0 14.406,6.4453 14.406,14.3945 0,7.9687 -6.457,14.4141 -14.406,14.4141 -7.961,0 -14.402,-6.4454 -14.402,-14.4141 0,-7.9492 6.441,-14.3945 14.402,-14.3945" /><path
               id="path1856"
               style="fill:#343537;fill-opacity:1;fill-rule:nonzero;stroke:none"
               d="m 71.9922,201.602 c 7.9492,0 14.4062,6.445 14.4062,14.394 0,7.969 -6.457,14.414 -14.4062,14.414 -7.9609,0 -14.3945,-6.445 -14.3945,-14.414 0,-7.949 6.4336,-14.394 14.3945,-14.394" /><path
               id="path1858"
               style="fill:#343537;fill-opacity:1;fill-rule:nonzero;stroke:none"
               d="m 215.996,201.602 c 7.949,0 14.406,6.445 14.406,14.394 0,7.969 -6.457,14.414 -14.406,14.414 -7.961,0 -14.402,-6.445 -14.402,-14.414 0,-7.949 6.441,-14.394 14.402,-14.394" /><path
               id="path1860"
               style="fill:#343537;fill-opacity:1;fill-rule:nonzero;stroke:none"
               d="M 0,-14.3945 C 7.94922,-14.3945 14.3945,-7.94922 14.3945,0 14.3945,7.94922 7.94922,14.3945 0,14.3945 -7.96094,14.3945 -14.4063,7.94922 -14.4063,0 -14.4063,-7.94922 -7.96094,-14.3945 0,-14.3945" /><path
               id="path1862"
               style="fill:#343537;fill-opacity:1;fill-rule:nonzero;stroke:none"
               d="m 0,129.59 c 7.94922,0 14.3945,6.465 14.3945,14.414 0,7.949 -6.44528,14.394 -14.3945,14.394 -7.96094,0 -14.4063,-6.445 -14.4063,-14.394 0,-7.949 6.44536,-14.414 14.4063,-14.414" /><path
               id="path1864"
               style="fill:#343537;fill-opacity:1;fill-rule:nonzero;stroke:none"
               d="m 287.996,273.613 c 7.953,0 14.399,6.446 14.399,14.395 0,7.949 -6.446,14.394 -14.399,14.394 -7.957,0 -14.402,-6.445 -14.402,-14.394 0,-7.949 6.445,-14.395 14.402,-14.395" /><path
               id="path1866"
               style="fill:#343537;fill-opacity:1;fill-rule:nonzero;stroke:none"
               d="m 143.992,273.613 c 7.953,0 14.406,6.446 14.406,14.395 0,7.949 -6.453,14.394 -14.406,14.394 -7.957,0 -14.39,-6.445 -14.39,-14.394 0,-7.949 6.433,-14.395 14.39,-14.395" /><path
               id="path1868"
               style="fill:#343537;fill-opacity:1;fill-rule:nonzero;stroke:none"
               d="m 0,273.613 c 7.94922,0 14.3945,6.446 14.3945,14.395 0,7.949 -6.44528,14.394 -14.3945,14.394 -7.96094,0 -14.4063,-6.445 -14.4063,-14.394 0,-7.949 6.44536,-14.395 14.4063,-14.395" /></g></g></g></pattern><clipPath
       id="clipPath1882"
       clipPathUnits="userSpaceOnUse"><path
         id="path1880"
         d="M 0,289 H 288 V 0 H 0 Z" /></clipPath><pattern
       id="pattern1916"
       height="28.8008"
       width="28.7998"
       y="0"
       x="0"
       patternUnits="userSpaceOnUse"
       patternTransform="matrix(-5.52022,-5.52022,5.52022,-5.52022,-112.02,101.969)"><g
         id="g1914"
         transform="scale(0.1)"><g
           id="g1912"><g
             id="g1910"
             clip-path="url(#clipPath1882)"><path
               id="path1884"
               style="fill:#343537;fill-opacity:1;fill-rule:nonzero;stroke:none"
               d="m 287.996,-14.3945 c 7.953,0 14.399,6.44528 14.399,14.3945 0,7.94922 -6.446,14.3945 -14.399,14.3945 -7.957,0 -14.402,-6.44528 -14.402,-14.3945 0,-7.94922 6.445,-14.3945 14.402,-14.3945" /><path
               id="path1886"
               style="fill:#343537;fill-opacity:1;fill-rule:nonzero;stroke:none"
               d="m 143.992,-14.3945 c 7.953,0 14.406,6.44528 14.406,14.3945 0,7.94922 -6.453,14.3945 -14.406,14.3945 -7.957,0 -14.39,-6.44528 -14.39,-14.3945 0,-7.94922 6.433,-14.3945 14.39,-14.3945" /><path
               id="path1888"
               style="fill:#343537;fill-opacity:1;fill-rule:nonzero;stroke:none"
               d="m 287.996,129.59 c 7.953,0 14.399,6.465 14.399,14.414 0,7.949 -6.446,14.394 -14.399,14.394 -7.957,0 -14.402,-6.445 -14.402,-14.394 0,-7.949 6.445,-14.414 14.402,-14.414" /><path
               id="path1890"
               style="fill:#343537;fill-opacity:1;fill-rule:nonzero;stroke:none"
               d="m 143.992,129.59 c 7.953,0 14.406,6.465 14.406,14.414 0,7.949 -6.453,14.394 -14.406,14.394 -7.957,0 -14.39,-6.445 -14.39,-14.394 0,-7.949 6.433,-14.414 14.39,-14.414" /><path
               id="path1892"
               style="fill:#343537;fill-opacity:1;fill-rule:nonzero;stroke:none"
               d="m 71.9922,57.5977 c 7.9492,0 14.4062,6.4453 14.4062,14.3945 0,7.9687 -6.457,14.4141 -14.4062,14.4141 -7.9609,0 -14.3945,-6.4454 -14.3945,-14.4141 0,-7.9492 6.4336,-14.3945 14.3945,-14.3945" /><path
               id="path1894"
               style="fill:#343537;fill-opacity:1;fill-rule:nonzero;stroke:none"
               d="m 215.996,57.5977 c 7.949,0 14.406,6.4453 14.406,14.3945 0,7.9687 -6.457,14.4141 -14.406,14.4141 -7.961,0 -14.402,-6.4454 -14.402,-14.4141 0,-7.9492 6.441,-14.3945 14.402,-14.3945" /><path
               id="path1896"
               style="fill:#343537;fill-opacity:1;fill-rule:nonzero;stroke:none"
               d="m 71.9922,201.602 c 7.9492,0 14.4062,6.445 14.4062,14.394 0,7.969 -6.457,14.414 -14.4062,14.414 -7.9609,0 -14.3945,-6.445 -14.3945,-14.414 0,-7.949 6.4336,-14.394 14.3945,-14.394" /><path
               id="path1898"
               style="fill:#343537;fill-opacity:1;fill-rule:nonzero;stroke:none"
               d="m 215.996,201.602 c 7.949,0 14.406,6.445 14.406,14.394 0,7.969 -6.457,14.414 -14.406,14.414 -7.961,0 -14.402,-6.445 -14.402,-14.414 0,-7.949 6.441,-14.394 14.402,-14.394" /><path
               id="path1900"
               style="fill:#343537;fill-opacity:1;fill-rule:nonzero;stroke:none"
               d="M 0,-14.3945 C 7.94922,-14.3945 14.3945,-7.94922 14.3945,0 14.3945,7.94922 7.94922,14.3945 0,14.3945 -7.96094,14.3945 -14.4063,7.94922 -14.4063,0 -14.4063,-7.94922 -7.96094,-14.3945 0,-14.3945" /><path
               id="path1902"
               style="fill:#343537;fill-opacity:1;fill-rule:nonzero;stroke:none"
               d="m 0,129.59 c 7.94922,0 14.3945,6.465 14.3945,14.414 0,7.949 -6.44528,14.394 -14.3945,14.394 -7.96094,0 -14.4063,-6.445 -14.4063,-14.394 0,-7.949 6.44536,-14.414 14.4063,-14.414" /><path
               id="path1904"
               style="fill:#343537;fill-opacity:1;fill-rule:nonzero;stroke:none"
               d="m 287.996,273.613 c 7.953,0 14.399,6.446 14.399,14.395 0,7.949 -6.446,14.394 -14.399,14.394 -7.957,0 -14.402,-6.445 -14.402,-14.394 0,-7.949 6.445,-14.395 14.402,-14.395" /><path
               id="path1906"
               style="fill:#343537;fill-opacity:1;fill-rule:nonzero;stroke:none"
               d="m 143.992,273.613 c 7.953,0 14.406,6.446 14.406,14.395 0,7.949 -6.453,14.394 -14.406,14.394 -7.957,0 -14.39,-6.445 -14.39,-14.394 0,-7.949 6.433,-14.395 14.39,-14.395" /><path
               id="path1908"
               style="fill:#343537;fill-opacity:1;fill-rule:nonzero;stroke:none"
               d="m 0,273.613 c 7.94922,0 14.3945,6.446 14.3945,14.395 0,7.949 -6.44528,14.394 -14.3945,14.394 -7.96094,0 -14.4063,-6.445 -14.4063,-14.394 0,-7.949 6.44536,-14.395 14.4063,-14.395" /></g></g></g></pattern><clipPath
       id="clipPath1924"
       clipPathUnits="userSpaceOnUse"><path
         id="path1922"
         d="M 0,0 V 720 H 720 V 0 Z" /></clipPath><pattern
       id="pattern1992"
       height="72"
       width="72"
       y="0"
       x="0"
       patternUnits="userSpaceOnUse"
       patternTransform="matrix(0,-10.0442,10.0442,0,-159,485.184)"><g
         id="g1990"
         transform="scale(0.1)"><g
           id="g1988"><g
             id="g1986"
             clip-path="url(#clipPath1924)"><path
               id="path1926"
               style="fill:none;stroke:#343537;stroke-opacity:1;stroke-width:14.4;stroke-linecap:butt;stroke-linejoin:miter;stroke-miterlimit:4;stroke-dasharray:none"
               d="m 717.5,35.9961 725,0" /><path
               id="path1928"
               style="fill:none;stroke:#343537;stroke-opacity:1;stroke-width:14.4;stroke-linecap:butt;stroke-linejoin:miter;stroke-miterlimit:4;stroke-dasharray:none"
               d="m 717.5,180 725,0" /><path
               id="path1930"
               style="fill:none;stroke:#343537;stroke-opacity:1;stroke-width:14.4;stroke-linecap:butt;stroke-linejoin:miter;stroke-miterlimit:4;stroke-dasharray:none"
               d="m 717.5,323.992 725,0" /><path
               id="path1932"
               style="fill:none;stroke:#343537;stroke-opacity:1;stroke-width:14.4;stroke-linecap:butt;stroke-linejoin:miter;stroke-miterlimit:4;stroke-dasharray:none"
               d="m 717.5,467.996 725,0" /><path
               id="path1934"
               style="fill:none;stroke:#343537;stroke-opacity:1;stroke-width:14.4;stroke-linecap:butt;stroke-linejoin:miter;stroke-miterlimit:4;stroke-dasharray:none"
               d="m 717.5,612.004 725,0" /><path
               id="path1936"
               style="fill:none;stroke:#343537;stroke-opacity:1;stroke-width:14.4;stroke-linecap:butt;stroke-linejoin:miter;stroke-miterlimit:4;stroke-dasharray:none"
               d="m 717.5,107.996 725,0" /><path
               id="path1938"
               style="fill:none;stroke:#343537;stroke-opacity:1;stroke-width:14.4;stroke-linecap:butt;stroke-linejoin:miter;stroke-miterlimit:4;stroke-dasharray:none"
               d="m 717.5,252.004 725,0" /><path
               id="path1940"
               style="fill:none;stroke:#343537;stroke-opacity:1;stroke-width:14.4;stroke-linecap:butt;stroke-linejoin:miter;stroke-miterlimit:4;stroke-dasharray:none"
               d="m 717.5,395.996 725,0" /><path
               id="path1942"
               style="fill:none;stroke:#343537;stroke-opacity:1;stroke-width:14.4;stroke-linecap:butt;stroke-linejoin:miter;stroke-miterlimit:4;stroke-dasharray:none"
               d="m 717.5,540 725,0" /><path
               id="path1944"
               style="fill:none;stroke:#343537;stroke-opacity:1;stroke-width:14.4;stroke-linecap:butt;stroke-linejoin:miter;stroke-miterlimit:4;stroke-dasharray:none"
               d="m 717.5,683.992 725,0" /><path
               id="path1946"
               style="fill:none;stroke:#343537;stroke-opacity:1;stroke-width:14.4;stroke-linecap:butt;stroke-linejoin:miter;stroke-miterlimit:4;stroke-dasharray:none"
               d="m -2.5,35.9961 725,0" /><path
               id="path1948"
               style="fill:none;stroke:#343537;stroke-opacity:1;stroke-width:14.4;stroke-linecap:butt;stroke-linejoin:miter;stroke-miterlimit:4;stroke-dasharray:none"
               d="m -2.5,180 725,0" /><path
               id="path1950"
               style="fill:none;stroke:#343537;stroke-opacity:1;stroke-width:14.4;stroke-linecap:butt;stroke-linejoin:miter;stroke-miterlimit:4;stroke-dasharray:none"
               d="m -2.5,323.992 725,0" /><path
               id="path1952"
               style="fill:none;stroke:#343537;stroke-opacity:1;stroke-width:14.4;stroke-linecap:butt;stroke-linejoin:miter;stroke-miterlimit:4;stroke-dasharray:none"
               d="m -2.5,467.996 725,0" /><path
               id="path1954"
               style="fill:none;stroke:#343537;stroke-opacity:1;stroke-width:14.4;stroke-linecap:butt;stroke-linejoin:miter;stroke-miterlimit:4;stroke-dasharray:none"
               d="m -2.5,612.004 725,0" /><path
               id="path1956"
               style="fill:none;stroke:#343537;stroke-opacity:1;stroke-width:14.4;stroke-linecap:butt;stroke-linejoin:miter;stroke-miterlimit:4;stroke-dasharray:none"
               d="m -2.5,107.996 725,0" /><path
               id="path1958"
               style="fill:none;stroke:#343537;stroke-opacity:1;stroke-width:14.4;stroke-linecap:butt;stroke-linejoin:miter;stroke-miterlimit:4;stroke-dasharray:none"
               d="m -2.5,252.004 725,0" /><path
               id="path1960"
               style="fill:none;stroke:#343537;stroke-opacity:1;stroke-width:14.4;stroke-linecap:butt;stroke-linejoin:miter;stroke-miterlimit:4;stroke-dasharray:none"
               d="m -2.5,395.996 725,0" /><path
               id="path1962"
               style="fill:none;stroke:#343537;stroke-opacity:1;stroke-width:14.4;stroke-linecap:butt;stroke-linejoin:miter;stroke-miterlimit:4;stroke-dasharray:none"
               d="m -2.5,540 725,0" /><path
               id="path1964"
               style="fill:none;stroke:#343537;stroke-opacity:1;stroke-width:14.4;stroke-linecap:butt;stroke-linejoin:miter;stroke-miterlimit:4;stroke-dasharray:none"
               d="m -2.5,683.992 725,0" /><path
               id="path1966"
               style="fill:none;stroke:#343537;stroke-opacity:1;stroke-width:14.4;stroke-linecap:butt;stroke-linejoin:miter;stroke-miterlimit:4;stroke-dasharray:none"
               d="m -722.5,35.9961 725,0" /><path
               id="path1968"
               style="fill:none;stroke:#343537;stroke-opacity:1;stroke-width:14.4;stroke-linecap:butt;stroke-linejoin:miter;stroke-miterlimit:4;stroke-dasharray:none"
               d="m -722.5,180 725,0" /><path
               id="path1970"
               style="fill:none;stroke:#343537;stroke-opacity:1;stroke-width:14.4;stroke-linecap:butt;stroke-linejoin:miter;stroke-miterlimit:4;stroke-dasharray:none"
               d="m -722.5,323.992 725,0" /><path
               id="path1972"
               style="fill:none;stroke:#343537;stroke-opacity:1;stroke-width:14.4;stroke-linecap:butt;stroke-linejoin:miter;stroke-miterlimit:4;stroke-dasharray:none"
               d="m -722.5,467.996 725,0" /><path
               id="path1974"
               style="fill:none;stroke:#343537;stroke-opacity:1;stroke-width:14.4;stroke-linecap:butt;stroke-linejoin:miter;stroke-miterlimit:4;stroke-dasharray:none"
               d="m -722.5,612.004 725,0" /><path
               id="path1976"
               style="fill:none;stroke:#343537;stroke-opacity:1;stroke-width:14.4;stroke-linecap:butt;stroke-linejoin:miter;stroke-miterlimit:4;stroke-dasharray:none"
               d="m -722.5,107.996 725,0" /><path
               id="path1978"
               style="fill:none;stroke:#343537;stroke-opacity:1;stroke-width:14.4;stroke-linecap:butt;stroke-linejoin:miter;stroke-miterlimit:4;stroke-dasharray:none"
               d="m -722.5,252.004 725,0" /><path
               id="path1980"
               style="fill:none;stroke:#343537;stroke-opacity:1;stroke-width:14.4;stroke-linecap:butt;stroke-linejoin:miter;stroke-miterlimit:4;stroke-dasharray:none"
               d="m -722.5,395.996 725,0" /><path
               id="path1982"
               style="fill:none;stroke:#343537;stroke-opacity:1;stroke-width:14.4;stroke-linecap:butt;stroke-linejoin:miter;stroke-miterlimit:4;stroke-dasharray:none"
               d="m -722.5,540 725,0" /><path
               id="path1984"
               style="fill:none;stroke:#343537;stroke-opacity:1;stroke-width:14.4;stroke-linecap:butt;stroke-linejoin:miter;stroke-miterlimit:4;stroke-dasharray:none"
               d="m -722.5,683.992 725,0" /></g></g></g></pattern><clipPath
       id="clipPath2010"
       clipPathUnits="userSpaceOnUse"><path
         id="path2008"
         d="M 0,289 H 288 V 0 H 0 Z" /></clipPath><pattern
       id="pattern2044"
       height="28.8008"
       width="28.7998"
       y="0"
       x="0"
       patternUnits="userSpaceOnUse"
       patternTransform="matrix(-7.10232,7.10232,-7.10232,-7.10232,110.098,172.551)"><g
         id="g2042"
         transform="scale(0.1)"><g
           id="g2040"><g
             id="g2038"
             clip-path="url(#clipPath2010)"><path
               id="path2012"
               style="fill:#343537;fill-opacity:1;fill-rule:nonzero;stroke:none"
               d="m 287.996,-14.3945 c 7.953,0 14.399,6.44528 14.399,14.3945 0,7.94922 -6.446,14.3945 -14.399,14.3945 -7.957,0 -14.402,-6.44528 -14.402,-14.3945 0,-7.94922 6.445,-14.3945 14.402,-14.3945" /><path
               id="path2014"
               style="fill:#343537;fill-opacity:1;fill-rule:nonzero;stroke:none"
               d="m 143.992,-14.3945 c 7.953,0 14.406,6.44528 14.406,14.3945 0,7.94922 -6.453,14.3945 -14.406,14.3945 -7.957,0 -14.39,-6.44528 -14.39,-14.3945 0,-7.94922 6.433,-14.3945 14.39,-14.3945" /><path
               id="path2016"
               style="fill:#343537;fill-opacity:1;fill-rule:nonzero;stroke:none"
               d="m 287.996,129.59 c 7.953,0 14.399,6.465 14.399,14.414 0,7.949 -6.446,14.394 -14.399,14.394 -7.957,0 -14.402,-6.445 -14.402,-14.394 0,-7.949 6.445,-14.414 14.402,-14.414" /><path
               id="path2018"
               style="fill:#343537;fill-opacity:1;fill-rule:nonzero;stroke:none"
               d="m 143.992,129.59 c 7.953,0 14.406,6.465 14.406,14.414 0,7.949 -6.453,14.394 -14.406,14.394 -7.957,0 -14.39,-6.445 -14.39,-14.394 0,-7.949 6.433,-14.414 14.39,-14.414" /><path
               id="path2020"
               style="fill:#343537;fill-opacity:1;fill-rule:nonzero;stroke:none"
               d="m 71.9922,57.5977 c 7.9492,0 14.4062,6.4453 14.4062,14.3945 0,7.9687 -6.457,14.4141 -14.4062,14.4141 -7.9609,0 -14.3945,-6.4454 -14.3945,-14.4141 0,-7.9492 6.4336,-14.3945 14.3945,-14.3945" /><path
               id="path2022"
               style="fill:#343537;fill-opacity:1;fill-rule:nonzero;stroke:none"
               d="m 215.996,57.5977 c 7.949,0 14.406,6.4453 14.406,14.3945 0,7.9687 -6.457,14.4141 -14.406,14.4141 -7.961,0 -14.402,-6.4454 -14.402,-14.4141 0,-7.9492 6.441,-14.3945 14.402,-14.3945" /><path
               id="path2024"
               style="fill:#343537;fill-opacity:1;fill-rule:nonzero;stroke:none"
               d="m 71.9922,201.602 c 7.9492,0 14.4062,6.445 14.4062,14.394 0,7.969 -6.457,14.414 -14.4062,14.414 -7.9609,0 -14.3945,-6.445 -14.3945,-14.414 0,-7.949 6.4336,-14.394 14.3945,-14.394" /><path
               id="path2026"
               style="fill:#343537;fill-opacity:1;fill-rule:nonzero;stroke:none"
               d="m 215.996,201.602 c 7.949,0 14.406,6.445 14.406,14.394 0,7.969 -6.457,14.414 -14.406,14.414 -7.961,0 -14.402,-6.445 -14.402,-14.414 0,-7.949 6.441,-14.394 14.402,-14.394" /><path
               id="path2028"
               style="fill:#343537;fill-opacity:1;fill-rule:nonzero;stroke:none"
               d="M 0,-14.3945 C 7.94922,-14.3945 14.3945,-7.94922 14.3945,0 14.3945,7.94922 7.94922,14.3945 0,14.3945 -7.96094,14.3945 -14.4063,7.94922 -14.4063,0 -14.4063,-7.94922 -7.96094,-14.3945 0,-14.3945" /><path
               id="path2030"
               style="fill:#343537;fill-opacity:1;fill-rule:nonzero;stroke:none"
               d="m 0,129.59 c 7.94922,0 14.3945,6.465 14.3945,14.414 0,7.949 -6.44528,14.394 -14.3945,14.394 -7.96094,0 -14.4063,-6.445 -14.4063,-14.394 0,-7.949 6.44536,-14.414 14.4063,-14.414" /><path
               id="path2032"
               style="fill:#343537;fill-opacity:1;fill-rule:nonzero;stroke:none"
               d="m 287.996,273.613 c 7.953,0 14.399,6.446 14.399,14.395 0,7.949 -6.446,14.394 -14.399,14.394 -7.957,0 -14.402,-6.445 -14.402,-14.394 0,-7.949 6.445,-14.395 14.402,-14.395" /><path
               id="path2034"
               style="fill:#343537;fill-opacity:1;fill-rule:nonzero;stroke:none"
               d="m 143.992,273.613 c 7.953,0 14.406,6.446 14.406,14.395 0,7.949 -6.453,14.394 -14.406,14.394 -7.957,0 -14.39,-6.445 -14.39,-14.394 0,-7.949 6.433,-14.395 14.39,-14.395" /><path
               id="path2036"
               style="fill:#343537;fill-opacity:1;fill-rule:nonzero;stroke:none"
               d="m 0,273.613 c 7.94922,0 14.3945,6.446 14.3945,14.395 0,7.949 -6.44528,14.394 -14.3945,14.394 -7.96094,0 -14.4063,-6.445 -14.4063,-14.394 0,-7.949 6.44536,-14.395 14.4063,-14.395" /></g></g></g></pattern><clipPath
       id="clipPath2050"
       clipPathUnits="userSpaceOnUse"><path
         id="path2048"
         d="M 0,0 V 720 H 720 V 0 Z" /></clipPath><pattern
       id="pattern2118"
       height="72"
       width="72"
       y="0"
       x="0"
       patternUnits="userSpaceOnUse"
       patternTransform="matrix(10.0442,0,0,10.0442,-17,624)"><g
         id="g2116"
         transform="scale(0.1)"><g
           id="g2114"><g
             id="g2112"
             clip-path="url(#clipPath2050)"><path
               id="path2052"
               style="fill:none;stroke:#343537;stroke-opacity:1;stroke-width:14.4;stroke-linecap:butt;stroke-linejoin:miter;stroke-miterlimit:4;stroke-dasharray:none"
               d="m 717.5,35.9961 725,0" /><path
               id="path2054"
               style="fill:none;stroke:#343537;stroke-opacity:1;stroke-width:14.4;stroke-linecap:butt;stroke-linejoin:miter;stroke-miterlimit:4;stroke-dasharray:none"
               d="m 717.5,180 725,0" /><path
               id="path2056"
               style="fill:none;stroke:#343537;stroke-opacity:1;stroke-width:14.4;stroke-linecap:butt;stroke-linejoin:miter;stroke-miterlimit:4;stroke-dasharray:none"
               d="m 717.5,323.992 725,0" /><path
               id="path2058"
               style="fill:none;stroke:#343537;stroke-opacity:1;stroke-width:14.4;stroke-linecap:butt;stroke-linejoin:miter;stroke-miterlimit:4;stroke-dasharray:none"
               d="m 717.5,467.996 725,0" /><path
               id="path2060"
               style="fill:none;stroke:#343537;stroke-opacity:1;stroke-width:14.4;stroke-linecap:butt;stroke-linejoin:miter;stroke-miterlimit:4;stroke-dasharray:none"
               d="m 717.5,612.004 725,0" /><path
               id="path2062"
               style="fill:none;stroke:#343537;stroke-opacity:1;stroke-width:14.4;stroke-linecap:butt;stroke-linejoin:miter;stroke-miterlimit:4;stroke-dasharray:none"
               d="m 717.5,107.996 725,0" /><path
               id="path2064"
               style="fill:none;stroke:#343537;stroke-opacity:1;stroke-width:14.4;stroke-linecap:butt;stroke-linejoin:miter;stroke-miterlimit:4;stroke-dasharray:none"
               d="m 717.5,252.004 725,0" /><path
               id="path2066"
               style="fill:none;stroke:#343537;stroke-opacity:1;stroke-width:14.4;stroke-linecap:butt;stroke-linejoin:miter;stroke-miterlimit:4;stroke-dasharray:none"
               d="m 717.5,395.996 725,0" /><path
               id="path2068"
               style="fill:none;stroke:#343537;stroke-opacity:1;stroke-width:14.4;stroke-linecap:butt;stroke-linejoin:miter;stroke-miterlimit:4;stroke-dasharray:none"
               d="m 717.5,540 725,0" /><path
               id="path2070"
               style="fill:none;stroke:#343537;stroke-opacity:1;stroke-width:14.4;stroke-linecap:butt;stroke-linejoin:miter;stroke-miterlimit:4;stroke-dasharray:none"
               d="m 717.5,683.992 725,0" /><path
               id="path2072"
               style="fill:none;stroke:#343537;stroke-opacity:1;stroke-width:14.4;stroke-linecap:butt;stroke-linejoin:miter;stroke-miterlimit:4;stroke-dasharray:none"
               d="m -2.5,35.9961 725,0" /><path
               id="path2074"
               style="fill:none;stroke:#343537;stroke-opacity:1;stroke-width:14.4;stroke-linecap:butt;stroke-linejoin:miter;stroke-miterlimit:4;stroke-dasharray:none"
               d="m -2.5,180 725,0" /><path
               id="path2076"
               style="fill:none;stroke:#343537;stroke-opacity:1;stroke-width:14.4;stroke-linecap:butt;stroke-linejoin:miter;stroke-miterlimit:4;stroke-dasharray:none"
               d="m -2.5,323.992 725,0" /><path
               id="path2078"
               style="fill:none;stroke:#343537;stroke-opacity:1;stroke-width:14.4;stroke-linecap:butt;stroke-linejoin:miter;stroke-miterlimit:4;stroke-dasharray:none"
               d="m -2.5,467.996 725,0" /><path
               id="path2080"
               style="fill:none;stroke:#343537;stroke-opacity:1;stroke-width:14.4;stroke-linecap:butt;stroke-linejoin:miter;stroke-miterlimit:4;stroke-dasharray:none"
               d="m -2.5,612.004 725,0" /><path
               id="path2082"
               style="fill:none;stroke:#343537;stroke-opacity:1;stroke-width:14.4;stroke-linecap:butt;stroke-linejoin:miter;stroke-miterlimit:4;stroke-dasharray:none"
               d="m -2.5,107.996 725,0" /><path
               id="path2084"
               style="fill:none;stroke:#343537;stroke-opacity:1;stroke-width:14.4;stroke-linecap:butt;stroke-linejoin:miter;stroke-miterlimit:4;stroke-dasharray:none"
               d="m -2.5,252.004 725,0" /><path
               id="path2086"
               style="fill:none;stroke:#343537;stroke-opacity:1;stroke-width:14.4;stroke-linecap:butt;stroke-linejoin:miter;stroke-miterlimit:4;stroke-dasharray:none"
               d="m -2.5,395.996 725,0" /><path
               id="path2088"
               style="fill:none;stroke:#343537;stroke-opacity:1;stroke-width:14.4;stroke-linecap:butt;stroke-linejoin:miter;stroke-miterlimit:4;stroke-dasharray:none"
               d="m -2.5,540 725,0" /><path
               id="path2090"
               style="fill:none;stroke:#343537;stroke-opacity:1;stroke-width:14.4;stroke-linecap:butt;stroke-linejoin:miter;stroke-miterlimit:4;stroke-dasharray:none"
               d="m -2.5,683.992 725,0" /><path
               id="path2092"
               style="fill:none;stroke:#343537;stroke-opacity:1;stroke-width:14.4;stroke-linecap:butt;stroke-linejoin:miter;stroke-miterlimit:4;stroke-dasharray:none"
               d="m -722.5,35.9961 725,0" /><path
               id="path2094"
               style="fill:none;stroke:#343537;stroke-opacity:1;stroke-width:14.4;stroke-linecap:butt;stroke-linejoin:miter;stroke-miterlimit:4;stroke-dasharray:none"
               d="m -722.5,180 725,0" /><path
               id="path2096"
               style="fill:none;stroke:#343537;stroke-opacity:1;stroke-width:14.4;stroke-linecap:butt;stroke-linejoin:miter;stroke-miterlimit:4;stroke-dasharray:none"
               d="m -722.5,323.992 725,0" /><path
               id="path2098"
               style="fill:none;stroke:#343537;stroke-opacity:1;stroke-width:14.4;stroke-linecap:butt;stroke-linejoin:miter;stroke-miterlimit:4;stroke-dasharray:none"
               d="m -722.5,467.996 725,0" /><path
               id="path2100"
               style="fill:none;stroke:#343537;stroke-opacity:1;stroke-width:14.4;stroke-linecap:butt;stroke-linejoin:miter;stroke-miterlimit:4;stroke-dasharray:none"
               d="m -722.5,612.004 725,0" /><path
               id="path2102"
               style="fill:none;stroke:#343537;stroke-opacity:1;stroke-width:14.4;stroke-linecap:butt;stroke-linejoin:miter;stroke-miterlimit:4;stroke-dasharray:none"
               d="m -722.5,107.996 725,0" /><path
               id="path2104"
               style="fill:none;stroke:#343537;stroke-opacity:1;stroke-width:14.4;stroke-linecap:butt;stroke-linejoin:miter;stroke-miterlimit:4;stroke-dasharray:none"
               d="m -722.5,252.004 725,0" /><path
               id="path2106"
               style="fill:none;stroke:#343537;stroke-opacity:1;stroke-width:14.4;stroke-linecap:butt;stroke-linejoin:miter;stroke-miterlimit:4;stroke-dasharray:none"
               d="m -722.5,395.996 725,0" /><path
               id="path2108"
               style="fill:none;stroke:#343537;stroke-opacity:1;stroke-width:14.4;stroke-linecap:butt;stroke-linejoin:miter;stroke-miterlimit:4;stroke-dasharray:none"
               d="m -722.5,540 725,0" /><path
               id="path2110"
               style="fill:none;stroke:#343537;stroke-opacity:1;stroke-width:14.4;stroke-linecap:butt;stroke-linejoin:miter;stroke-miterlimit:4;stroke-dasharray:none"
               d="m -722.5,683.992 725,0" /></g></g></g></pattern></defs><g
     transform="matrix(1.3333333,0,0,-1.3333333,0,666.66667)"
     id="g842"><path
       d="m 152.442,346.145 c 23.85,0 43.184,19.335 43.184,43.185 0,23.85 -19.334,43.184 -43.184,43.184 -23.85,0 -43.185,-19.334 -43.185,-43.184 0,-23.85 19.335,-43.185 43.185,-43.185"
       style="fill:#f03940;fill-opacity:1;fill-rule:nonzero;stroke:none;stroke-width:0.1"
       id="path848" /><g
       transform="scale(0.1)"
       id="g1740"><g
         id="g1742"
         clip-path="url(#clipPath1746)"><g
           id="g1748"
           clip-path="url(#clipPath1752)"><path
             d="m 963.254,4019.17 c -544.414,0 -985.7501,441.34 -985.7501,985.75 0,544.42 441.3361,985.75 985.7501,985.75 544.416,0 985.746,-441.33 985.746,-985.75 0,-544.41 -441.33,-985.75 -985.746,-985.75 z"
             style="fill:none;stroke:#343537;stroke-width:7.04140997;stroke-linecap:butt;stroke-linejoin:miter;stroke-miterlimit:10;stroke-dasharray:none;stroke-opacity:1"
             id="path1754" /><path
             d="m 963.254,4090.4 c -505.078,0 -914.5235,409.44 -914.5235,914.52 0,505.08 409.4455,914.52 914.5235,914.52 505.076,0 914.516,-409.44 914.516,-914.52 0,-505.08 -409.44,-914.52 -914.516,-914.52 z"
             style="fill:none;stroke:#343537;stroke-width:6.88313007;stroke-linecap:butt;stroke-linejoin:miter;stroke-miterlimit:10;stroke-dasharray:none;stroke-opacity:1"
             id="path1756" /><path
             d="m 963.254,4161.63 c -465.738,0 -843.297,377.55 -843.297,843.29 0,465.74 377.559,843.29 843.297,843.29 465.736,0 843.296,-377.55 843.296,-843.29 0,-465.74 -377.56,-843.29 -843.296,-843.29 z"
             style="fill:none;stroke:#343537;stroke-width:6.72484016;stroke-linecap:butt;stroke-linejoin:miter;stroke-miterlimit:10;stroke-dasharray:none;stroke-opacity:1"
             id="path1758" /><path
             d="m 963.254,4232.85 c -426.402,0 -772.07,345.67 -772.07,772.07 0,426.4 345.668,772.07 772.07,772.07 426.396,0 772.066,-345.67 772.066,-772.07 0,-426.4 -345.67,-772.07 -772.066,-772.07 z"
             style="fill:none;stroke:#343537;stroke-width:6.56654978;stroke-linecap:butt;stroke-linejoin:miter;stroke-miterlimit:10;stroke-dasharray:none;stroke-opacity:1"
             id="path1760" /><path
             d="m 963.254,4304.08 c -387.066,0 -700.844,313.78 -700.844,700.84 0,387.06 313.778,700.84 700.844,700.84 387.066,0 700.836,-313.78 700.836,-700.84 0,-387.06 -313.77,-700.84 -700.836,-700.84 z"
             style="fill:none;stroke:#343537;stroke-width:6.40825987;stroke-linecap:butt;stroke-linejoin:miter;stroke-miterlimit:10;stroke-dasharray:none;stroke-opacity:1"
             id="path1762" /><path
             d="m 963.254,4375.3 c -347.727,0 -629.617,281.9 -629.617,629.62 0,347.73 281.89,629.62 629.617,629.62 347.726,0 629.616,-281.89 629.616,-629.62 0,-347.72 -281.89,-629.62 -629.616,-629.62 z"
             style="fill:none;stroke:#343537;stroke-width:6.24997997;stroke-linecap:butt;stroke-linejoin:miter;stroke-miterlimit:10;stroke-dasharray:none;stroke-opacity:1"
             id="path1764" /><path
             d="m 963.254,4446.53 c -308.391,0 -558.391,250 -558.391,558.39 0,308.39 250,558.39 558.391,558.39 308.386,0 558.386,-250 558.386,-558.39 0,-308.39 -250,-558.39 -558.386,-558.39 z"
             style="fill:none;stroke:#343537;stroke-width:6.09169006;stroke-linecap:butt;stroke-linejoin:miter;stroke-miterlimit:10;stroke-dasharray:none;stroke-opacity:1"
             id="path1766" /><path
             d="m 963.254,4517.76 c -269.055,0 -487.164,218.11 -487.164,487.16 0,269.05 218.109,487.16 487.164,487.16 269.046,0 487.156,-218.11 487.156,-487.16 0,-269.05 -218.11,-487.16 -487.156,-487.16 z"
             style="fill:none;stroke:#343537;stroke-width:5.93340015;stroke-linecap:butt;stroke-linejoin:miter;stroke-miterlimit:10;stroke-dasharray:none;stroke-opacity:1"
             id="path1768" /><path
             d="m 963.254,4588.98 c -229.715,0 -415.938,186.23 -415.938,415.94 0,229.72 186.223,415.94 415.938,415.94 229.716,0 415.936,-186.22 415.936,-415.94 0,-229.71 -186.22,-415.94 -415.936,-415.94 z"
             style="fill:none;stroke:#343537;stroke-width:5.77510977;stroke-linecap:butt;stroke-linejoin:miter;stroke-miterlimit:10;stroke-dasharray:none;stroke-opacity:1"
             id="path1770" /><path
             d="m 963.254,4660.21 c -190.379,0 -344.707,154.33 -344.707,344.71 0,190.38 154.328,344.71 344.707,344.71 190.376,0 344.706,-154.33 344.706,-344.71 0,-190.38 -154.33,-344.71 -344.706,-344.71 z"
             style="fill:none;stroke:#343537;stroke-width:5.61682987;stroke-linecap:butt;stroke-linejoin:miter;stroke-miterlimit:10;stroke-dasharray:none;stroke-opacity:1"
             id="path1772" /><path
             d="m 963.254,4731.44 c -151.039,0 -273.484,122.44 -273.484,273.48 0,151.04 122.445,273.48 273.484,273.48 151.036,0 273.476,-122.44 273.476,-273.48 0,-151.04 -122.44,-273.48 -273.476,-273.48 z"
             style="fill:none;stroke:#343537;stroke-width:5.45853996;stroke-linecap:butt;stroke-linejoin:miter;stroke-miterlimit:10;stroke-dasharray:none;stroke-opacity:1"
             id="path1774" /><path
             d="m 963.254,4802.67 c -111.703,0 -202.258,90.55 -202.258,202.25 0,111.71 90.555,202.26 202.258,202.26 111.696,0 202.256,-90.55 202.256,-202.26 0,-111.7 -90.56,-202.25 -202.256,-202.25 z"
             style="fill:none;stroke:#343537;stroke-width:5.30025005;stroke-linecap:butt;stroke-linejoin:miter;stroke-miterlimit:10;stroke-dasharray:none;stroke-opacity:1"
             id="path1776" /><path
             d="m 963.254,4873.89 c -72.367,0 -131.027,58.66 -131.027,131.03 0,72.37 58.66,131.03 131.027,131.03 72.366,0 131.026,-58.66 131.026,-131.03 0,-72.37 -58.66,-131.03 -131.026,-131.03 z"
             style="fill:none;stroke:#343537;stroke-width:5.14196014;stroke-linecap:butt;stroke-linejoin:miter;stroke-miterlimit:10;stroke-dasharray:none;stroke-opacity:1"
             id="path1778" /><path
             d="m 963.254,4945.12 c -33.027,0 -59.801,26.77 -59.801,59.8 0,33.03 26.774,59.8 59.801,59.8 33.027,0 59.796,-26.77 59.796,-59.8 0,-33.03 -26.769,-59.8 -59.796,-59.8 z"
             style="fill:none;stroke:#343537;stroke-width:4.98367023;stroke-linecap:butt;stroke-linejoin:miter;stroke-miterlimit:10;stroke-dasharray:none;stroke-opacity:1"
             id="path1780" /></g></g></g><path
       d="m -2.55313,500.214 c 0,-0.026 -7.8e-4,-0.051 -7.8e-4,-0.076 0,-54.442 44.13321,-98.575 98.57461,-98.575 v 98.651 H -2.55313"
       style="fill:#343537;fill-opacity:1;fill-rule:nonzero;stroke:none;stroke-width:0.1"
       id="path1782" /><path
       d="m 146.093,288.121 c 0,-31.035 -25.159,-56.194 -56.1946,-56.194 -31.0351,0 -56.1941,25.159 -56.1941,56.194 0,31.036 25.159,56.195 56.1941,56.195 31.0356,0 56.1946,-25.159 56.1946,-56.195"
       style="fill:url(#pattern2166);fill-opacity:1;fill-rule:nonzero;stroke:none;stroke-width:0.1"
       id="path1918" /><path
       d="m 96.1844,302.325 c 0,0.026 0.0011,0.051 0.0011,0.077 0,54.441 -44.1335,98.575 -98.57495,98.575 V 302.325 H 96.1844"
       style="fill:url(#pattern2150);fill-opacity:1;fill-rule:nonzero;stroke:none;stroke-width:0.1"
       id="path2120" /></g></svg>