<?xml version="1.0" encoding="UTF-8" standalone="no"?>
<svg
   xmlns:dc="http://purl.org/dc/elements/1.1/"
   xmlns:cc="http://creativecommons.org/ns#"
   xmlns:rdf="http://www.w3.org/1999/02/22-rdf-syntax-ns#"
   xmlns:svg="http://www.w3.org/2000/svg"
   xmlns="http://www.w3.org/2000/svg"
   xmlns:xlink="http://www.w3.org/1999/xlink"
   viewBox="0 0 1000 666.66669"
   height="666.66669"
   width="1000"
   xml:space="preserve"
   id="svg834"
   version="1.1"><metadata
     id="metadata840"><rdf:RDF><cc:Work
         rdf:about=""><dc:format>image/svg+xml</dc:format><dc:type
           rdf:resource="http://purl.org/dc/dcmitype/StillImage" /><dc:title></dc:title></cc:Work></rdf:RDF></metadata><defs
     id="defs838"><pattern
       patternTransform="matrix(0,-1.00442,1.00442,0,-15.9,48.5184)"
       id="pattern2162"
       xlink:href="#pattern1992" /><pattern
       patternTransform="matrix(-0.710232,0.710232,-0.710232,-0.710232,11.0098,17.2551)"
       id="pattern2153"
       xlink:href="#pattern2044" /><clipPath
       id="clipPath1746"
       clipPathUnits="userSpaceOnUse"><path
         id="path1744"
         d="M 7500,0 H 0 v 5000 h 7500 z" /></clipPath><clipPath
       id="clipPath1752"
       clipPathUnits="userSpaceOnUse"><path
         id="path1750"
         d="M 959.074,4001.61 V 5004.89 H 1972.78 V 4001.61 Z" /></clipPath><clipPath
       id="clipPath1790"
       clipPathUnits="userSpaceOnUse"><path
         id="path1788"
         d="M 7500,0 H 0 v 5000 h 7500 z" /></clipPath><clipPath
       id="clipPath1796"
       clipPathUnits="userSpaceOnUse"><path
         id="path1794"
         d="M 6513.7,4015.65 H 7516.58 V 3002.36 H 6513.7 Z" /></clipPath><clipPath
       id="clipPath1842"
       clipPathUnits="userSpaceOnUse"><path
         id="path1840"
         d="M 0,289 H 288 V 0 H 0 Z" /></clipPath><pattern
       id="pattern1876"
       height="28.8008"
       width="28.7998"
       y="0"
       x="0"
       patternUnits="userSpaceOnUse"
       patternTransform="matrix(-7.10232,-7.10232,7.10232,-7.10232,-98.4531,11.0977)"><g
         id="g1874"
         transform="scale(0.1)"><g
           id="g1872"><g
             id="g1870"
             clip-path="url(#clipPath1842)"><path
               id="path1844"
               style="fill:#343537;fill-opacity:1;fill-rule:nonzero;stroke:none"
               d="m 287.996,-14.3945 c 7.953,0 14.399,6.44528 14.399,14.3945 0,7.94922 -6.446,14.3945 -14.399,14.3945 -7.957,0 -14.402,-6.44528 -14.402,-14.3945 0,-7.94922 6.445,-14.3945 14.402,-14.3945" /><path
               id="path1846"
               style="fill:#343537;fill-opacity:1;fill-rule:nonzero;stroke:none"
               d="m 143.992,-14.3945 c 7.953,0 14.406,6.44528 14.406,14.3945 0,7.94922 -6.453,14.3945 -14.406,14.3945 -7.957,0 -14.39,-6.44528 -14.39,-14.3945 0,-7.94922 6.433,-14.3945 14.39,-14.3945" /><path
               id="path1848"
               style="fill:#343537;fill-opacity:1;fill-rule:nonzero;stroke:none"
               d="m 287.996,129.59 c 7.953,0 14.399,6.465 14.399,14.414 0,7.949 -6.446,14.394 -14.399,14.394 -7.957,0 -14.402,-6.445 -14.402,-14.394 0,-7.949 6.445,-14.414 14.402,-14.414" /><path
               id="path1850"
               style="fill:#343537;fill-opacity:1;fill-rule:nonzero;stroke:none"
               d="m 143.992,129.59 c 7.953,0 14.406,6.465 14.406,14.414 0,7.949 -6.453,14.394 -14.406,14.394 -7.957,0 -14.39,-6.445 -14.39,-14.394 0,-7.949 6.433,-14.414 14.39,-14.414" /><path
               id="path1852"
               style="fill:#343537;fill-opacity:1;fill-rule:nonzero;stroke:none"
               d="m 71.9922,57.5977 c 7.9492,0 14.4062,6.4453 14.4062,14.3945 0,7.9687 -6.457,14.4141 -14.4062,14.4141 -7.9609,0 -14.3945,-6.4454 -14.3945,-14.4141 0,-7.9492 6.4336,-14.3945 14.3945,-14.3945" /><path
               id="path1854"
               style="fill:#343537;fill-opacity:1;fill-rule:nonzero;stroke:none"
               d="m 215.996,57.5977 c 7.949,0 14.406,6.4453 14.406,14.3945 0,7.9687 -6.457,14.4141 -14.406,14.4141 -7.961,0 -14.402,-6.4454 -14.402,-14.4141 0,-7.9492 6.441,-14.3945 14.402,-14.3945" /><path
               id="path1856"
               style="fill:#343537;fill-opacity:1;fill-rule:nonzero;stroke:none"
               d="m 71.9922,201.602 c 7.9492,0 14.4062,6.445 14.4062,14.394 0,7.969 -6.457,14.414 -14.4062,14.414 -7.9609,0 -14.3945,-6.445 -14.3945,-14.414 0,-7.949 6.4336,-14.394 14.3945,-14.394" /><path
               id="path1858"
               style="fill:#343537;fill-opacity:1;fill-rule:nonzero;stroke:none"
               d="m 215.996,201.602 c 7.949,0 14.406,6.445 14.406,14.394 0,7.969 -6.457,14.414 -14.406,14.414 -7.961,0 -14.402,-6.445 -14.402,-14.414 0,-7.949 6.441,-14.394 14.402,-14.394" /><path
               id="path1860"
               style="fill:#343537;fill-opacity:1;fill-rule:nonzero;stroke:none"
               d="M 0,-14.3945 C 7.94922,-14.3945 14.3945,-7.94922 14.3945,0 14.3945,7.94922 7.94922,14.3945 0,14.3945 -7.96094,14.3945 -14.4063,7.94922 -14.4063,0 -14.4063,-7.94922 -7.96094,-14.3945 0,-14.3945" /><path
               id="path1862"
               style="fill:#343537;fill-opacity:1;fill-rule:nonzero;stroke:none"
               d="m 0,129.59 c 7.94922,0 14.3945,6.465 14.3945,14.414 0,7.949 -6.44528,14.394 -14.3945,14.394 -7.96094,0 -14.4063,-6.445 -14.4063,-14.394 0,-7.949 6.44536,-14.414 14.4063,-14.414" /><path
               id="path1864"
               style="fill:#343537;fill-opacity:1;fill-rule:nonzero;stroke:none"
               d="m 287.996,273.613 c 7.953,0 14.399,6.446 14.399,14.395 0,7.949 -6.446,14.394 -14.399,14.394 -7.957,0 -14.402,-6.445 -14.402,-14.394 0,-7.949 6.445,-14.395 14.402,-14.395" /><path
               id="path1866"
               style="fill:#343537;fill-opacity:1;fill-rule:nonzero;stroke:none"
               d="m 143.992,273.613 c 7.953,0 14.406,6.446 14.406,14.395 0,7.949 -6.453,14.394 -14.406,14.394 -7.957,0 -14.39,-6.445 -14.39,-14.394 0,-7.949 6.433,-14.395 14.39,-14.395" /><path
               id="path1868"
               style="fill:#343537;fill-opacity:1;fill-rule:nonzero;stroke:none"
               d="m 0,273.613 c 7.94922,0 14.3945,6.446 14.3945,14.395 0,7.949 -6.44528,14.394 -14.3945,14.394 -7.96094,0 -14.4063,-6.445 -14.4063,-14.394 0,-7.949 6.44536,-14.395 14.4063,-14.395" /></g></g></g></pattern><clipPath
       id="clipPath1882"
       clipPathUnits="userSpaceOnUse"><path
         id="path1880"
         d="M 0,289 H 288 V 0 H 0 Z" /></clipPath><pattern
       id="pattern1916"
       height="28.8008"
       width="28.7998"
       y="0"
       x="0"
       patternUnits="userSpaceOnUse"
       patternTransform="matrix(-5.52022,-5.52022,5.52022,-5.52022,-112.02,101.969)"><g
         id="g1914"
         transform="scale(0.1)"><g
           id="g1912"><g
             id="g1910"
             clip-path="url(#clipPath1882)"><path
               id="path1884"
               style="fill:#343537;fill-opacity:1;fill-rule:nonzero;stroke:none"
               d="m 287.996,-14.3945 c 7.953,0 14.399,6.44528 14.399,14.3945 0,7.94922 -6.446,14.3945 -14.399,14.3945 -7.957,0 -14.402,-6.44528 -14.402,-14.3945 0,-7.94922 6.445,-14.3945 14.402,-14.3945" /><path
               id="path1886"
               style="fill:#343537;fill-opacity:1;fill-rule:nonzero;stroke:none"
               d="m 143.992,-14.3945 c 7.953,0 14.406,6.44528 14.406,14.3945 0,7.94922 -6.453,14.3945 -14.406,14.3945 -7.957,0 -14.39,-6.44528 -14.39,-14.3945 0,-7.94922 6.433,-14.3945 14.39,-14.3945" /><path
               id="path1888"
               style="fill:#343537;fill-opacity:1;fill-rule:nonzero;stroke:none"
               d="m 287.996,129.59 c 7.953,0 14.399,6.465 14.399,14.414 0,7.949 -6.446,14.394 -14.399,14.394 -7.957,0 -14.402,-6.445 -14.402,-14.394 0,-7.949 6.445,-14.414 14.402,-14.414" /><path
               id="path1890"
               style="fill:#343537;fill-opacity:1;fill-rule:nonzero;stroke:none"
               d="m 143.992,129.59 c 7.953,0 14.406,6.465 14.406,14.414 0,7.949 -6.453,14.394 -14.406,14.394 -7.957,0 -14.39,-6.445 -14.39,-14.394 0,-7.949 6.433,-14.414 14.39,-14.414" /><path
               id="path1892"
               style="fill:#343537;fill-opacity:1;fill-rule:nonzero;stroke:none"
               d="m 71.9922,57.5977 c 7.9492,0 14.4062,6.4453 14.4062,14.3945 0,7.9687 -6.457,14.4141 -14.4062,14.4141 -7.9609,0 -14.3945,-6.4454 -14.3945,-14.4141 0,-7.9492 6.4336,-14.3945 14.3945,-14.3945" /><path
               id="path1894"
               style="fill:#343537;fill-opacity:1;fill-rule:nonzero;stroke:none"
               d="m 215.996,57.5977 c 7.949,0 14.406,6.4453 14.406,14.3945 0,7.9687 -6.457,14.4141 -14.406,14.4141 -7.961,0 -14.402,-6.4454 -14.402,-14.4141 0,-7.9492 6.441,-14.3945 14.402,-14.3945" /><path
               id="path1896"
               style="fill:#343537;fill-opacity:1;fill-rule:nonzero;stroke:none"
               d="m 71.9922,201.602 c 7.9492,0 14.4062,6.445 14.4062,14.394 0,7.969 -6.457,14.414 -14.4062,14.414 -7.9609,0 -14.3945,-6.445 -14.3945,-14.414 0,-7.949 6.4336,-14.394 14.3945,-14.394" /><path
               id="path1898"
               style="fill:#343537;fill-opacity:1;fill-rule:nonzero;stroke:none"
               d="m 215.996,201.602 c 7.949,0 14.406,6.445 14.406,14.394 0,7.969 -6.457,14.414 -14.406,14.414 -7.961,0 -14.402,-6.445 -14.402,-14.414 0,-7.949 6.441,-14.394 14.402,-14.394" /><path
               id="path1900"
               style="fill:#343537;fill-opacity:1;fill-rule:nonzero;stroke:none"
               d="M 0,-14.3945 C 7.94922,-14.3945 14.3945,-7.94922 14.3945,0 14.3945,7.94922 7.94922,14.3945 0,14.3945 -7.96094,14.3945 -14.4063,7.94922 -14.4063,0 -14.4063,-7.94922 -7.96094,-14.3945 0,-14.3945" /><path
               id="path1902"
               style="fill:#343537;fill-opacity:1;fill-rule:nonzero;stroke:none"
               d="m 0,129.59 c 7.94922,0 14.3945,6.465 14.3945,14.414 0,7.949 -6.44528,14.394 -14.3945,14.394 -7.96094,0 -14.4063,-6.445 -14.4063,-14.394 0,-7.949 6.44536,-14.414 14.4063,-14.414" /><path
               id="path1904"
               style="fill:#343537;fill-opacity:1;fill-rule:nonzero;stroke:none"
               d="m 287.996,273.613 c 7.953,0 14.399,6.446 14.399,14.395 0,7.949 -6.446,14.394 -14.399,14.394 -7.957,0 -14.402,-6.445 -14.402,-14.394 0,-7.949 6.445,-14.395 14.402,-14.395" /><path
               id="path1906"
               style="fill:#343537;fill-opacity:1;fill-rule:nonzero;stroke:none"
               d="m 143.992,273.613 c 7.953,0 14.406,6.446 14.406,14.395 0,7.949 -6.453,14.394 -14.406,14.394 -7.957,0 -14.39,-6.445 -14.39,-14.394 0,-7.949 6.433,-14.395 14.39,-14.395" /><path
               id="path1908"
               style="fill:#343537;fill-opacity:1;fill-rule:nonzero;stroke:none"
               d="m 0,273.613 c 7.94922,0 14.3945,6.446 14.3945,14.395 0,7.949 -6.44528,14.394 -14.3945,14.394 -7.96094,0 -14.4063,-6.445 -14.4063,-14.394 0,-7.949 6.44536,-14.395 14.4063,-14.395" /></g></g></g></pattern><clipPath
       id="clipPath1924"
       clipPathUnits="userSpaceOnUse"><path
         id="path1922"
         d="M 0,0 V 720 H 720 V 0 Z" /></clipPath><pattern
       id="pattern1992"
       height="72"
       width="72"
       y="0"
       x="0"
       patternUnits="userSpaceOnUse"
       patternTransform="matrix(0,-10.0442,10.0442,0,-159,485.184)"><g
         id="g1990"
         transform="scale(0.1)"><g
           id="g1988"><g
             id="g1986"
             clip-path="url(#clipPath1924)"><path
               id="path1926"
               style="fill:none;stroke:#343537;stroke-opacity:1;stroke-width:14.4;stroke-linecap:butt;stroke-linejoin:miter;stroke-miterlimit:4;stroke-dasharray:none"
               d="m 717.5,35.9961 725,0" /><path
               id="path1928"
               style="fill:none;stroke:#343537;stroke-opacity:1;stroke-width:14.4;stroke-linecap:butt;stroke-linejoin:miter;stroke-miterlimit:4;stroke-dasharray:none"
               d="m 717.5,180 725,0" /><path
               id="path1930"
               style="fill:none;stroke:#343537;stroke-opacity:1;stroke-width:14.4;stroke-linecap:butt;stroke-linejoin:miter;stroke-miterlimit:4;stroke-dasharray:none"
               d="m 717.5,323.992 725,0" /><path
               id="path1932"
               style="fill:none;stroke:#343537;stroke-opacity:1;stroke-width:14.4;stroke-linecap:butt;stroke-linejoin:miter;stroke-miterlimit:4;stroke-dasharray:none"
               d="m 717.5,467.996 725,0" /><path
               id="path1934"
               style="fill:none;stroke:#343537;stroke-opacity:1;stroke-width:14.4;stroke-linecap:butt;stroke-linejoin:miter;stroke-miterlimit:4;stroke-dasharray:none"
               d="m 717.5,612.004 725,0" /><path
               id="path1936"
               style="fill:none;stroke:#343537;stroke-opacity:1;stroke-width:14.4;stroke-linecap:butt;stroke-linejoin:miter;stroke-miterlimit:4;stroke-dasharray:none"
               d="m 717.5,107.996 725,0" /><path
               id="path1938"
               style="fill:none;stroke:#343537;stroke-opacity:1;stroke-width:14.4;stroke-linecap:butt;stroke-linejoin:miter;stroke-miterlimit:4;stroke-dasharray:none"
               d="m 717.5,252.004 725,0" /><path
               id="path1940"
               style="fill:none;stroke:#343537;stroke-opacity:1;stroke-width:14.4;stroke-linecap:butt;stroke-linejoin:miter;stroke-miterlimit:4;stroke-dasharray:none"
               d="m 717.5,395.996 725,0" /><path
               id="path1942"
               style="fill:none;stroke:#343537;stroke-opacity:1;stroke-width:14.4;stroke-linecap:butt;stroke-linejoin:miter;stroke-miterlimit:4;stroke-dasharray:none"
               d="m 717.5,540 725,0" /><path
               id="path1944"
               style="fill:none;stroke:#343537;stroke-opacity:1;stroke-width:14.4;stroke-linecap:butt;stroke-linejoin:miter;stroke-miterlimit:4;stroke-dasharray:none"
               d="m 717.5,683.992 725,0" /><path
               id="path1946"
               style="fill:none;stroke:#343537;stroke-opacity:1;stroke-width:14.4;stroke-linecap:butt;stroke-linejoin:miter;stroke-miterlimit:4;stroke-dasharray:none"
               d="m -2.5,35.9961 725,0" /><path
               id="path1948"
               style="fill:none;stroke:#343537;stroke-opacity:1;stroke-width:14.4;stroke-linecap:butt;stroke-linejoin:miter;stroke-miterlimit:4;stroke-dasharray:none"
               d="m -2.5,180 725,0" /><path
               id="path1950"
               style="fill:none;stroke:#343537;stroke-opacity:1;stroke-width:14.4;stroke-linecap:butt;stroke-linejoin:miter;stroke-miterlimit:4;stroke-dasharray:none"
               d="m -2.5,323.992 725,0" /><path
               id="path1952"
               style="fill:none;stroke:#343537;stroke-opacity:1;stroke-width:14.4;stroke-linecap:butt;stroke-linejoin:miter;stroke-miterlimit:4;stroke-dasharray:none"
               d="m -2.5,467.996 725,0" /><path
               id="path1954"
               style="fill:none;stroke:#343537;stroke-opacity:1;stroke-width:14.4;stroke-linecap:butt;stroke-linejoin:miter;stroke-miterlimit:4;stroke-dasharray:none"
               d="m -2.5,612.004 725,0" /><path
               id="path1956"
               style="fill:none;stroke:#343537;stroke-opacity:1;stroke-width:14.4;stroke-linecap:butt;stroke-linejoin:miter;stroke-miterlimit:4;stroke-dasharray:none"
               d="m -2.5,107.996 725,0" /><path
               id="path1958"
               style="fill:none;stroke:#343537;stroke-opacity:1;stroke-width:14.4;stroke-linecap:butt;stroke-linejoin:miter;stroke-miterlimit:4;stroke-dasharray:none"
               d="m -2.5,252.004 725,0" /><path
               id="path1960"
               style="fill:none;stroke:#343537;stroke-opacity:1;stroke-width:14.4;stroke-linecap:butt;stroke-linejoin:miter;stroke-miterlimit:4;stroke-dasharray:none"
               d="m -2.5,395.996 725,0" /><path
               id="path1962"
               style="fill:none;stroke:#343537;stroke-opacity:1;stroke-width:14.4;stroke-linecap:butt;stroke-linejoin:miter;stroke-miterlimit:4;stroke-dasharray:none"
               d="m -2.5,540 725,0" /><path
               id="path1964"
               style="fill:none;stroke:#343537;stroke-opacity:1;stroke-width:14.4;stroke-linecap:butt;stroke-linejoin:miter;stroke-miterlimit:4;stroke-dasharray:none"
               d="m -2.5,683.992 725,0" /><path
               id="path1966"
               style="fill:none;stroke:#343537;stroke-opacity:1;stroke-width:14.4;stroke-linecap:butt;stroke-linejoin:miter;stroke-miterlimit:4;stroke-dasharray:none"
               d="m -722.5,35.9961 725,0" /><path
               id="path1968"
               style="fill:none;stroke:#343537;stroke-opacity:1;stroke-width:14.4;stroke-linecap:butt;stroke-linejoin:miter;stroke-miterlimit:4;stroke-dasharray:none"
               d="m -722.5,180 725,0" /><path
               id="path1970"
               style="fill:none;stroke:#343537;stroke-opacity:1;stroke-width:14.4;stroke-linecap:butt;stroke-linejoin:miter;stroke-miterlimit:4;stroke-dasharray:none"
               d="m -722.5,323.992 725,0" /><path
               id="path1972"
               style="fill:none;stroke:#343537;stroke-opacity:1;stroke-width:14.4;stroke-linecap:butt;stroke-linejoin:miter;stroke-miterlimit:4;stroke-dasharray:none"
               d="m -722.5,467.996 725,0" /><path
               id="path1974"
               style="fill:none;stroke:#343537;stroke-opacity:1;stroke-width:14.4;stroke-linecap:butt;stroke-linejoin:miter;stroke-miterlimit:4;stroke-dasharray:none"
               d="m -722.5,612.004 725,0" /><path
               id="path1976"
               style="fill:none;stroke:#343537;stroke-opacity:1;stroke-width:14.4;stroke-linecap:butt;stroke-linejoin:miter;stroke-miterlimit:4;stroke-dasharray:none"
               d="m -722.5,107.996 725,0" /><path
               id="path1978"
               style="fill:none;stroke:#343537;stroke-opacity:1;stroke-width:14.4;stroke-linecap:butt;stroke-linejoin:miter;stroke-miterlimit:4;stroke-dasharray:none"
               d="m -722.5,252.004 725,0" /><path
               id="path1980"
               style="fill:none;stroke:#343537;stroke-opacity:1;stroke-width:14.4;stroke-linecap:butt;stroke-linejoin:miter;stroke-miterlimit:4;stroke-dasharray:none"
               d="m -722.5,395.996 725,0" /><path
               id="path1982"
               style="fill:none;stroke:#343537;stroke-opacity:1;stroke-width:14.4;stroke-linecap:butt;stroke-linejoin:miter;stroke-miterlimit:4;stroke-dasharray:none"
               d="m -722.5,540 725,0" /><path
               id="path1984"
               style="fill:none;stroke:#343537;stroke-opacity:1;stroke-width:14.4;stroke-linecap:butt;stroke-linejoin:miter;stroke-miterlimit:4;stroke-dasharray:none"
               d="m -722.5,683.992 725,0" /></g></g></g></pattern><clipPath
       id="clipPath2010"
       clipPathUnits="userSpaceOnUse"><path
         id="path2008"
         d="M 0,289 H 288 V 0 H 0 Z" /></clipPath><pattern
       id="pattern2044"
       height="28.8008"
       width="28.7998"
       y="0"
       x="0"
       patternUnits="userSpaceOnUse"
       patternTransform="matrix(-7.10232,7.10232,-7.10232,-7.10232,110.098,172.551)"><g
         id="g2042"
         transform="scale(0.1)"><g
           id="g2040"><g
             id="g2038"
             clip-path="url(#clipPath2010)"><path
               id="path2012"
               style="fill:#343537;fill-opacity:1;fill-rule:nonzero;stroke:none"
               d="m 287.996,-14.3945 c 7.953,0 14.399,6.44528 14.399,14.3945 0,7.94922 -6.446,14.3945 -14.399,14.3945 -7.957,0 -14.402,-6.44528 -14.402,-14.3945 0,-7.94922 6.445,-14.3945 14.402,-14.3945" /><path
               id="path2014"
               style="fill:#343537;fill-opacity:1;fill-rule:nonzero;stroke:none"
               d="m 143.992,-14.3945 c 7.953,0 14.406,6.44528 14.406,14.3945 0,7.94922 -6.453,14.3945 -14.406,14.3945 -7.957,0 -14.39,-6.44528 -14.39,-14.3945 0,-7.94922 6.433,-14.3945 14.39,-14.3945" /><path
               id="path2016"
               style="fill:#343537;fill-opacity:1;fill-rule:nonzero;stroke:none"
               d="m 287.996,129.59 c 7.953,0 14.399,6.465 14.399,14.414 0,7.949 -6.446,14.394 -14.399,14.394 -7.957,0 -14.402,-6.445 -14.402,-14.394 0,-7.949 6.445,-14.414 14.402,-14.414" /><path
               id="path2018"
               style="fill:#343537;fill-opacity:1;fill-rule:nonzero;stroke:none"
               d="m 143.992,129.59 c 7.953,0 14.406,6.465 14.406,14.414 0,7.949 -6.453,14.394 -14.406,14.394 -7.957,0 -14.39,-6.445 -14.39,-14.394 0,-7.949 6.433,-14.414 14.39,-14.414" /><path
               id="path2020"
               style="fill:#343537;fill-opacity:1;fill-rule:nonzero;stroke:none"
               d="m 71.9922,57.5977 c 7.9492,0 14.4062,6.4453 14.4062,14.3945 0,7.9687 -6.457,14.4141 -14.4062,14.4141 -7.9609,0 -14.3945,-6.4454 -14.3945,-14.4141 0,-7.9492 6.4336,-14.3945 14.3945,-14.3945" /><path
               id="path2022"
               style="fill:#343537;fill-opacity:1;fill-rule:nonzero;stroke:none"
               d="m 215.996,57.5977 c 7.949,0 14.406,6.4453 14.406,14.3945 0,7.9687 -6.457,14.4141 -14.406,14.4141 -7.961,0 -14.402,-6.4454 -14.402,-14.4141 0,-7.9492 6.441,-14.3945 14.402,-14.3945" /><path
               id="path2024"
               style="fill:#343537;fill-opacity:1;fill-rule:nonzero;stroke:none"
               d="m 71.9922,201.602 c 7.9492,0 14.4062,6.445 14.4062,14.394 0,7.969 -6.457,14.414 -14.4062,14.414 -7.9609,0 -14.3945,-6.445 -14.3945,-14.414 0,-7.949 6.4336,-14.394 14.3945,-14.394" /><path
               id="path2026"
               style="fill:#343537;fill-opacity:1;fill-rule:nonzero;stroke:none"
               d="m 215.996,201.602 c 7.949,0 14.406,6.445 14.406,14.394 0,7.969 -6.457,14.414 -14.406,14.414 -7.961,0 -14.402,-6.445 -14.402,-14.414 0,-7.949 6.441,-14.394 14.402,-14.394" /><path
               id="path2028"
               style="fill:#343537;fill-opacity:1;fill-rule:nonzero;stroke:none"
               d="M 0,-14.3945 C 7.94922,-14.3945 14.3945,-7.94922 14.3945,0 14.3945,7.94922 7.94922,14.3945 0,14.3945 -7.96094,14.3945 -14.4063,7.94922 -14.4063,0 -14.4063,-7.94922 -7.96094,-14.3945 0,-14.3945" /><path
               id="path2030"
               style="fill:#343537;fill-opacity:1;fill-rule:nonzero;stroke:none"
               d="m 0,129.59 c 7.94922,0 14.3945,6.465 14.3945,14.414 0,7.949 -6.44528,14.394 -14.3945,14.394 -7.96094,0 -14.4063,-6.445 -14.4063,-14.394 0,-7.949 6.44536,-14.414 14.4063,-14.414" /><path
               id="path2032"
               style="fill:#343537;fill-opacity:1;fill-rule:nonzero;stroke:none"
               d="m 287.996,273.613 c 7.953,0 14.399,6.446 14.399,14.395 0,7.949 -6.446,14.394 -14.399,14.394 -7.957,0 -14.402,-6.445 -14.402,-14.394 0,-7.949 6.445,-14.395 14.402,-14.395" /><path
               id="path2034"
               style="fill:#343537;fill-opacity:1;fill-rule:nonzero;stroke:none"
               d="m 143.992,273.613 c 7.953,0 14.406,6.446 14.406,14.395 0,7.949 -6.453,14.394 -14.406,14.394 -7.957,0 -14.39,-6.445 -14.39,-14.394 0,-7.949 6.433,-14.395 14.39,-14.395" /><path
               id="path2036"
               style="fill:#343537;fill-opacity:1;fill-rule:nonzero;stroke:none"
               d="m 0,273.613 c 7.94922,0 14.3945,6.446 14.3945,14.395 0,7.949 -6.44528,14.394 -14.3945,14.394 -7.96094,0 -14.4063,-6.445 -14.4063,-14.394 0,-7.949 6.44536,-14.395 14.4063,-14.395" /></g></g></g></pattern><clipPath
       id="clipPath2050"
       clipPathUnits="userSpaceOnUse"><path
         id="path2048"
         d="M 0,0 V 720 H 720 V 0 Z" /></clipPath><pattern
       id="pattern2118"
       height="72"
       width="72"
       y="0"
       x="0"
       patternUnits="userSpaceOnUse"
       patternTransform="matrix(10.0442,0,0,10.0442,-17,624)"><g
         id="g2116"
         transform="scale(0.1)"><g
           id="g2114"><g
             id="g2112"
             clip-path="url(#clipPath2050)"><path
               id="path2052"
               style="fill:none;stroke:#343537;stroke-opacity:1;stroke-width:14.4;stroke-linecap:butt;stroke-linejoin:miter;stroke-miterlimit:4;stroke-dasharray:none"
               d="m 717.5,35.9961 725,0" /><path
               id="path2054"
               style="fill:none;stroke:#343537;stroke-opacity:1;stroke-width:14.4;stroke-linecap:butt;stroke-linejoin:miter;stroke-miterlimit:4;stroke-dasharray:none"
               d="m 717.5,180 725,0" /><path
               id="path2056"
               style="fill:none;stroke:#343537;stroke-opacity:1;stroke-width:14.4;stroke-linecap:butt;stroke-linejoin:miter;stroke-miterlimit:4;stroke-dasharray:none"
               d="m 717.5,323.992 725,0" /><path
               id="path2058"
               style="fill:none;stroke:#343537;stroke-opacity:1;stroke-width:14.4;stroke-linecap:butt;stroke-linejoin:miter;stroke-miterlimit:4;stroke-dasharray:none"
               d="m 717.5,467.996 725,0" /><path
               id="path2060"
               style="fill:none;stroke:#343537;stroke-opacity:1;stroke-width:14.4;stroke-linecap:butt;stroke-linejoin:miter;stroke-miterlimit:4;stroke-dasharray:none"
               d="m 717.5,612.004 725,0" /><path
               id="path2062"
               style="fill:none;stroke:#343537;stroke-opacity:1;stroke-width:14.4;stroke-linecap:butt;stroke-linejoin:miter;stroke-miterlimit:4;stroke-dasharray:none"
               d="m 717.5,107.996 725,0" /><path
               id="path2064"
               style="fill:none;stroke:#343537;stroke-opacity:1;stroke-width:14.4;stroke-linecap:butt;stroke-linejoin:miter;stroke-miterlimit:4;stroke-dasharray:none"
               d="m 717.5,252.004 725,0" /><path
               id="path2066"
               style="fill:none;stroke:#343537;stroke-opacity:1;stroke-width:14.4;stroke-linecap:butt;stroke-linejoin:miter;stroke-miterlimit:4;stroke-dasharray:none"
               d="m 717.5,395.996 725,0" /><path
               id="path2068"
               style="fill:none;stroke:#343537;stroke-opacity:1;stroke-width:14.4;stroke-linecap:butt;stroke-linejoin:miter;stroke-miterlimit:4;stroke-dasharray:none"
               d="m 717.5,540 725,0" /><path
               id="path2070"
               style="fill:none;stroke:#343537;stroke-opacity:1;stroke-width:14.4;stroke-linecap:butt;stroke-linejoin:miter;stroke-miterlimit:4;stroke-dasharray:none"
               d="m 717.5,683.992 725,0" /><path
               id="path2072"
               style="fill:none;stroke:#343537;stroke-opacity:1;stroke-width:14.4;stroke-linecap:butt;stroke-linejoin:miter;stroke-miterlimit:4;stroke-dasharray:none"
               d="m -2.5,35.9961 725,0" /><path
               id="path2074"
               style="fill:none;stroke:#343537;stroke-opacity:1;stroke-width:14.4;stroke-linecap:butt;stroke-linejoin:miter;stroke-miterlimit:4;stroke-dasharray:none"
               d="m -2.5,180 725,0" /><path
               id="path2076"
               style="fill:none;stroke:#343537;stroke-opacity:1;stroke-width:14.4;stroke-linecap:butt;stroke-linejoin:miter;stroke-miterlimit:4;stroke-dasharray:none"
               d="m -2.5,323.992 725,0" /><path
               id="path2078"
               style="fill:none;stroke:#343537;stroke-opacity:1;stroke-width:14.4;stroke-linecap:butt;stroke-linejoin:miter;stroke-miterlimit:4;stroke-dasharray:none"
               d="m -2.5,467.996 725,0" /><path
               id="path2080"
               style="fill:none;stroke:#343537;stroke-opacity:1;stroke-width:14.4;stroke-linecap:butt;stroke-linejoin:miter;stroke-miterlimit:4;stroke-dasharray:none"
               d="m -2.5,612.004 725,0" /><path
               id="path2082"
               style="fill:none;stroke:#343537;stroke-opacity:1;stroke-width:14.4;stroke-linecap:butt;stroke-linejoin:miter;stroke-miterlimit:4;stroke-dasharray:none"
               d="m -2.5,107.996 725,0" /><path
               id="path2084"
               style="fill:none;stroke:#343537;stroke-opacity:1;stroke-width:14.4;stroke-linecap:butt;stroke-linejoin:miter;stroke-miterlimit:4;stroke-dasharray:none"
               d="m -2.5,252.004 725,0" /><path
               id="path2086"
               style="fill:none;stroke:#343537;stroke-opacity:1;stroke-width:14.4;stroke-linecap:butt;stroke-linejoin:miter;stroke-miterlimit:4;stroke-dasharray:none"
               d="m -2.5,395.996 725,0" /><path
               id="path2088"
               style="fill:none;stroke:#343537;stroke-opacity:1;stroke-width:14.4;stroke-linecap:butt;stroke-linejoin:miter;stroke-miterlimit:4;stroke-dasharray:none"
               d="m -2.5,540 725,0" /><path
               id="path2090"
               style="fill:none;stroke:#343537;stroke-opacity:1;stroke-width:14.4;stroke-linecap:butt;stroke-linejoin:miter;stroke-miterlimit:4;stroke-dasharray:none"
               d="m -2.5,683.992 725,0" /><path
               id="path2092"
               style="fill:none;stroke:#343537;stroke-opacity:1;stroke-width:14.4;stroke-linecap:butt;stroke-linejoin:miter;stroke-miterlimit:4;stroke-dasharray:none"
               d="m -722.5,35.9961 725,0" /><path
               id="path2094"
               style="fill:none;stroke:#343537;stroke-opacity:1;stroke-width:14.4;stroke-linecap:butt;stroke-linejoin:miter;stroke-miterlimit:4;stroke-dasharray:none"
               d="m -722.5,180 725,0" /><path
               id="path2096"
               style="fill:none;stroke:#343537;stroke-opacity:1;stroke-width:14.4;stroke-linecap:butt;stroke-linejoin:miter;stroke-miterlimit:4;stroke-dasharray:none"
               d="m -722.5,323.992 725,0" /><path
               id="path2098"
               style="fill:none;stroke:#343537;stroke-opacity:1;stroke-width:14.4;stroke-linecap:butt;stroke-linejoin:miter;stroke-miterlimit:4;stroke-dasharray:none"
               d="m -722.5,467.996 725,0" /><path
               id="path2100"
               style="fill:none;stroke:#343537;stroke-opacity:1;stroke-width:14.4;stroke-linecap:butt;stroke-linejoin:miter;stroke-miterlimit:4;stroke-dasharray:none"
               d="m -722.5,612.004 725,0" /><path
               id="path2102"
               style="fill:none;stroke:#343537;stroke-opacity:1;stroke-width:14.4;stroke-linecap:butt;stroke-linejoin:miter;stroke-miterlimit:4;stroke-dasharray:none"
               d="m -722.5,107.996 725,0" /><path
               id="path2104"
               style="fill:none;stroke:#343537;stroke-opacity:1;stroke-width:14.4;stroke-linecap:butt;stroke-linejoin:miter;stroke-miterlimit:4;stroke-dasharray:none"
               d="m -722.5,252.004 725,0" /><path
               id="path2106"
               style="fill:none;stroke:#343537;stroke-opacity:1;stroke-width:14.4;stroke-linecap:butt;stroke-linejoin:miter;stroke-miterlimit:4;stroke-dasharray:none"
               d="m -722.5,395.996 725,0" /><path
               id="path2108"
               style="fill:none;stroke:#343537;stroke-opacity:1;stroke-width:14.4;stroke-linecap:butt;stroke-linejoin:miter;stroke-miterlimit:4;stroke-dasharray:none"
               d="m -722.5,540 725,0" /><path
               id="path2110"
               style="fill:none;stroke:#343537;stroke-opacity:1;stroke-width:14.4;stroke-linecap:butt;stroke-linejoin:miter;stroke-miterlimit:4;stroke-dasharray:none"
               d="m -722.5,683.992 725,0" /></g></g></g></pattern></defs><g
     transform="matrix(1.3333333,0,0,-1.3333333,0,666.66667)"
     id="g842"><path
       d="m 182.574,44.8191 c 23.851,0 43.185,19.3348 43.185,43.1848 0,23.8501 -19.334,43.1841 -43.185,43.1841 -23.85,0 -43.184,-19.334 -43.184,-43.1841 0,-23.85 19.334,-43.1848 43.184,-43.1848"
       style="fill:#f03940;fill-opacity:1;fill-rule:nonzero;stroke:none;stroke-width:0.1"
       id="path1920" /><path
       d="m 96.9945,-2.15391 c -0.0254,0 -0.0507,-0.00117 -0.0761,-0.00117 -54.4414,0 -98.57465,44.13318 -98.57465,98.57498 H 96.9945 V -2.15391"
       style="fill:url(#pattern2162);fill-opacity:1;fill-rule:nonzero;stroke:none;stroke-width:0.1"
       id="path1994" /><path
       d="m 96.5,94.884 c 0,54.442 -42.9809,98.616 -97.383203,98.616 -0.025391,0 0.164062,0 0.164062,0 v 0 H 96.5 V 94.884"
       style="fill:#343537;fill-opacity:1;fill-rule:nonzero;stroke:none;stroke-width:0.1"
       id="path1996" /><path
       d="m 96.5,94.884 c 0,54.442 -42.9809,98.616 -97.383203,98.616 -0.025391,0 0.164062,0 0.164062,0 v 0 H 96.5 Z"
       style="fill:none;stroke:#343537;stroke-width:1;stroke-linecap:butt;stroke-linejoin:miter;stroke-miterlimit:10;stroke-dasharray:none;stroke-opacity:1"
       id="path1998" /><path
       d="M 96.5,97.0699 C 96.5,42.6289 141.459,-0.5 195.862,-0.5 c 0.025,0 0.638,0 0.638,0 v -1 h -100 v 98.5699"
       style="fill:#343537;fill-opacity:1;fill-rule:nonzero;stroke:none;stroke-width:0.1"
       id="path2000" /><path
       d="M 96.5,97.0699 C 96.5,42.6289 141.459,-0.5 195.862,-0.5 c 0.025,0 0.638,0 0.638,0 v -1 h -100 z"
       style="fill:none;stroke:#343537;stroke-width:1;stroke-linecap:butt;stroke-linejoin:miter;stroke-miterlimit:10;stroke-dasharray:none;stroke-opacity:1"
       id="path2002" /><path
       d="m -1.5,293.936 c 0,-54.441 44.3742,-98.436 98.7762,-98.436 0.0258,0 -0.7762,0 -0.7762,0 v -5.226 l -98,4.018 v 99.644"
       style="fill:#343537;fill-opacity:1;fill-rule:nonzero;stroke:none;stroke-width:0.1"
       id="path2004" /><path
       d="m -1.5,293.936 c 0,-54.441 44.3742,-98.436 98.7762,-98.436 0.0258,0 -0.7762,0 -0.7762,0 v -5.226 l -98,4.018 z"
       style="fill:none;stroke:#343537;stroke-width:1;stroke-linecap:butt;stroke-linejoin:miter;stroke-miterlimit:10;stroke-dasharray:none;stroke-opacity:1"
       id="path2006" /><path
       d="m 264.735,-17.8578 c 39.93,0 72.299,32.3687 72.299,72.3 0,39.9297 -32.369,72.2988 -72.299,72.2988 -39.93,0 -72.3,-32.3691 -72.3,-72.2988 0,-39.9313 32.37,-72.3 72.3,-72.3"
       style="fill:url(#pattern2153);fill-opacity:1;fill-rule:nonzero;stroke:none;stroke-width:0.1"
       id="path2046" /></g></svg>