<?xml version="1.0" encoding="UTF-8" standalone="no"?>
<svg
   xmlns:dc="http://purl.org/dc/elements/1.1/"
   xmlns:cc="http://creativecommons.org/ns#"
   xmlns:rdf="http://www.w3.org/1999/02/22-rdf-syntax-ns#"
   xmlns:svg="http://www.w3.org/2000/svg"
   xmlns="http://www.w3.org/2000/svg"
   xmlns:sodipodi="http://sodipodi.sourceforge.net/DTD/sodipodi-0.dtd"
   xmlns:inkscape="http://www.inkscape.org/namespaces/inkscape"
   id="svg8"
   version="1.1"
   viewBox="0 0 1587.5 662.28466"
   height="2503.123"
   width="6000"
   sodipodi:docname="logo_without_year.svg"
   inkscape:version="0.92.4 (unknown)">
  <sodipodi:namedview
     pagecolor="#ffffff"
     bordercolor="#666666"
     borderopacity="1"
     objecttolerance="10"
     gridtolerance="10"
     guidetolerance="10"
     inkscape:pageopacity="0"
     inkscape:pageshadow="2"
     inkscape:window-width="1920"
     inkscape:window-height="1052"
     id="namedview23"
     showgrid="false"
     inkscape:zoom="0.03275"
     inkscape:cx="5099.1103"
     inkscape:cy="-4810.5371"
     inkscape:window-x="1366"
     inkscape:window-y="0"
     inkscape:window-maximized="1"
     inkscape:current-layer="svg8" />
  <defs
     id="defs2" />
  <metadata
     id="metadata5">
    <rdf:RDF>
      <cc:Work
         rdf:about="">
        <dc:format>image/svg+xml</dc:format>
        <dc:type
           rdf:resource="http://purl.org/dc/dcmitype/StillImage" />
        <dc:title></dc:title>
      </cc:Work>
    </rdf:RDF>
  </metadata>
  <path
     id="path901"
     d="m 364.43077,257.35873 h 91.76815 a 130.79847,130.79847 0 0 1 38.1147,5.23195 88.445928,88.445928 0 0 1 29.61272,15.1203 68.302964,68.302964 0 0 1 19.33201,24.09308 74.031937,74.031937 0 0 1 6.88,32.56881 v 0.70632 a 72.200757,72.200757 0 0 1 -29.45574,60.1673 95.24745,95.24745 0 0 1 -31.39167,15.12029 139.11726,139.11726 0 0 1 -37.77454,5.02268 h -68.27695 v 93.9133 h -18.80868 z m 88.13187,141.02692 a 111.15254,111.15254 0 0 0 32.15036,-4.34251 73.901138,73.901138 0 0 0 24.74703,-12.47818 57.917566,57.917566 0 0 0 16.06208,-19.72441 56.845016,56.845016 0 0 0 5.78137,-25.68881 v -0.73248 a 59.644104,59.644104 0 0 0 -5.49361,-26.60442 52.31939,52.31939 0 0 0 -15.69573,-18.99193 73.247146,73.247146 0 0 0 -24.2239,-11.58875 114.47483,114.47483 0 0 0 -31.05173,-3.97627 h -71.59906 v 124.12776 z"
     class="cls-1"
     style="fill:#489bb6;stroke-width:2.61596966"
     inkscape:connector-curvature="0"
     inkscape:export-xdpi="300"
     inkscape:export-ydpi="300" />
  <path
     id="path903"
     d="m 624.17026,567.84814 a 80.441062,80.441062 0 0 1 -18.78269,-2.01428 112.80061,112.80061 0 0 1 -17.68384,-6.06905 l 6.12132,-15.69581 a 66.027071,66.027071 0 0 0 14.10017,5.23192 77.95589,77.95589 0 0 0 17.3439,1.59575 40.128972,40.128972 0 0 0 13.36745,-2.14509 32.281063,32.281063 0 0 0 11.53655,-7.35088 67.308896,67.308896 0 0 0 10.46389,-13.47225 157.40289,157.40289 0 0 0 10.12373,-20.1168 l -88.49822,-182.1238 h 20.56142 l 76.59554,164.04745 66.47181,-164.04745 h 19.51518 l -79.83926,189.97171 q -12.26904,28.77567 -26.91853,40.46906 a 53.627375,53.627375 0 0 1 -34.47842,11.71952 z"
     class="cls-1"
     style="fill:#489bb6;stroke-width:2.61596966"
     inkscape:connector-curvature="0"
     inkscape:export-xdpi="300"
     inkscape:export-ydpi="300" />
  <path
     id="path905"
     d="M 813.35714,263.92481 H 897.513 a 150.13049,150.13049 0 0 1 54.38595,9.5483 128.36562,128.36562 0 0 1 42.61425,26.44744 117.71863,117.71863 0 0 1 27.6508,39.73658 125.04334,125.04334 0 0 1 9.7574,49.46798 v 0.65401 a 126.22053,126.22053 0 0 1 -9.7574,49.7034 117.37855,117.37855 0 0 1 -27.6508,39.94587 130.4584,130.4584 0 0 1 -42.61425,26.6044 147.43604,147.43604 0 0 1 -54.38595,9.73142 H 813.35714 Z M 897.513,498.86505 a 128.1825,128.1825 0 0 0 47.68912,-8.47576 106.7054,106.7054 0 0 0 36.12658,-23.09901 102.49369,102.49369 0 0 0 22.9419,-34.29537 110.02768,110.02768 0 0 0 8.1096,-42.40485 v -0.81094 a 110.34159,110.34159 0 0 0 -8.1356,-42.22177 104.01095,104.01095 0 0 0 -22.9421,-34.66159 107.90874,107.90874 0 0 0 -36.12658,-23.54373 125.56654,125.56654 0 0 0 -47.68912,-8.65884 h -65.39915 v 218.17186 z"
     class="cls-2"
     style="fill:#eb8f41;stroke-width:2.61596966"
     inkscape:connector-curvature="0"
     inkscape:export-xdpi="300"
     inkscape:export-ydpi="300" />
  <path
     id="path907"
     d="m 1147.8613,520.10672 a 92.919236,92.919236 0 0 1 -25.6365,-3.61004 73.247146,73.247146 0 0 1 -22.759,-10.7778 57.551328,57.551328 0 0 1 -16.4544,-17.99787 48.944789,48.944789 0 0 1 -6.3045,-25.1918 v -0.7063 a 53.418097,53.418097 0 0 1 5.9644,-25.55803 54.647604,54.647604 0 0 1 16.4282,-18.70418 76.883343,76.883343 0 0 1 25.2965,-11.51025 126.97916,126.97916 0 0 1 32.8565,-3.95013 225.60121,225.60121 0 0 1 33.5891,2.14511 256.62661,256.62661 0 0 1 27.4677,5.75513 v -7.84791 q 0,-27.88623 -16.0883,-41.85552 -16.0881,-13.96928 -44.6022,-13.94313 a 110.23696,110.23696 0 0 0 -31.0515,4.18556 153.45277,153.45277 0 0 0 -26.7353,10.46389 l -6.5137,-15.48654 a 188.50676,188.50676 0 0 1 30.7114,-11.77186 127.18844,127.18844 0 0 1 34.6878,-4.42101 q 37.9053,0 58.153,20.16913 18.7565,18.67802 18.7827,51.7962 v 114.4225 h -17.3439 v -30.50219 a 91.76821,91.76821 0 0 1 -11.3794,12.76593 76.831025,76.831025 0 0 1 -15.3558,11.14403 88.942962,88.942962 0 0 1 -43.7128,10.98708 z m 1.0986,-16.92534 a 85.85612,85.85612 0 0 0 26.7353,-4.10707 73.744181,73.744181 0 0 0 22.2096,-11.45794 55.64167,55.64167 0 0 0 15.1726,-17.73628 47.793763,47.793763 0 0 0 5.5982,-22.94205 v -20.7708 q -11.5627,-2.85141 -27.1015,-5.57201 a 210.69018,210.69018 0 0 0 -35.394,-2.61597 q -29.2728,0 -44.9686,11.64106 a 36.623572,36.623572 0 0 0 -15.6959,30.97309 v 0.73245 a 35.367907,35.367907 0 0 0 4.3426,17.73628 40.495207,40.495207 0 0 0 11.7195,13.07986 55.850948,55.850948 0 0 0 17.1607,8.24031 71.468287,71.468287 0 0 0 20.2215,2.79907 z"
     class="cls-2"
     style="fill:#eb8f41;stroke-width:2.61596966"
     inkscape:connector-curvature="0"
     inkscape:export-xdpi="300"
     inkscape:export-ydpi="300" />
  <path
     id="path909"
     d="m 1360.6441,519.008 a 68.015208,68.015208 0 0 1 -20.2212,-2.87757 42.195588,42.195588 0 0 1 -27.4679,-25.00867 57.682128,57.682128 0 0 1 -3.9762,-22.47117 V 348.47296 h -26.7351 v -16.24518 h 26.7351 v -58.57156 h 17.71 v 58.57156 h 64.6669 v 16.19285 h -64.6669 v 118.11102 q 0,19.72442 10.281,27.62463 a 42.483344,42.483344 0 0 0 26.5519,7.84791 59.748743,59.748743 0 0 0 13.0799,-1.3603 81.095055,81.095055 0 0 0 14.074,-4.76105 v 16.55909 a 77.328059,77.328059 0 0 1 -14.2833,4.83954 68.904637,68.904637 0 0 1 -15.7482,1.72653 z"
     class="cls-2"
     style="fill:#eb8f41;stroke-width:2.61596966"
     inkscape:connector-curvature="0"
     inkscape:export-xdpi="300"
     inkscape:export-ydpi="300" />
  <path
     id="path911"
     d="m 1499.709,520.10672 a 92.919236,92.919236 0 0 1 -25.6365,-3.61004 73.064029,73.064029 0 0 1 -22.7589,-10.7778 57.237412,57.237412 0 0 1 -16.4282,-17.99787 48.709351,48.709351 0 0 1 -6.3307,-25.1918 v -0.7063 a 53.418097,53.418097 0 0 1 5.9646,-25.55803 54.647604,54.647604 0 0 1 16.4282,-18.70418 76.883343,76.883343 0 0 1 25.2963,-11.51025 126.97916,126.97916 0 0 1 32.8567,-3.95013 225.73201,225.73201 0 0 1 33.6151,2.14511 257.51604,257.51604 0 0 1 27.4417,5.75513 v -7.84791 q 0,-27.88623 -16.0621,-41.85552 -16.0621,-13.96928 -44.6807,-13.96928 a 110.55087,110.55087 0 0 0 -31.0256,4.21171 154.02828,154.02828 0 0 0 -26.7089,10.46389 l -6.5139,-15.48654 a 188.50676,188.50676 0 0 1 30.7116,-11.77186 127.10996,127.10996 0 0 1 34.6616,-4.42101 q 37.9577,0 58.1792,20.16913 18.8087,18.67802 18.7825,51.7962 v 114.4225 h -17.3437 v -30.50219 a 90.12015,90.12015 0 0 1 -11.3796,12.76593 76.831025,76.831025 0 0 1 -15.3558,11.14403 88.942962,88.942962 0 0 1 -43.7129,10.98708 z m 1.0989,-16.92534 a 85.85612,85.85612 0 0 0 26.7351,-4.10707 73.744181,73.744181 0 0 0 22.2096,-11.45794 55.64167,55.64167 0 0 0 15.1726,-17.73628 47.793763,47.793763 0 0 0 5.5982,-22.94205 v -20.7708 q -11.5887,-2.85141 -27.1015,-5.57201 a 210.69018,210.69018 0 0 0 -35.3941,-2.61597 q -29.2725,0 -44.9685,11.64106 a 36.623572,36.623572 0 0 0 -15.6957,30.97309 v 0.73245 a 35.367907,35.367907 0 0 0 4.3426,17.73628 40.573688,40.573688 0 0 0 11.7457,13.07986 55.275435,55.275435 0 0 0 17.1607,8.24031 71.28517,71.28517 0 0 0 20.1953,2.79907 z"
     class="cls-2"
     style="fill:#eb8f41;stroke-width:2.61596966"
     inkscape:connector-curvature="0"
     inkscape:export-xdpi="300"
     inkscape:export-ydpi="300" />
  <path
     id="path913"
     d="M -1.3622351e-5,257.38489 145.16024,333.248 V 488.34884 M -1.3622351e-5,257.38489 V 412.48572 L 145.16024,488.34884"
     class="cls-1"
     style="fill:#489bb6;stroke-width:2.61596966"
     inkscape:connector-curvature="0"
     inkscape:export-xdpi="300"
     inkscape:export-ydpi="300" />
  <path
     id="path915"
     d="M 152.58956,319.14793 8.4757655,243.28481 153.6358,168.72969 298.76985,243.70337 Z"
     class="cls-2"
     style="fill:#eb8f41;stroke-width:2.61596966"
     inkscape:connector-curvature="0"
     inkscape:export-xdpi="300"
     inkscape:export-ydpi="300" />
  <path
     transform="matrix(2.6159695,0,0,2.6159695,-1.3622351e-5,-3.4699968e-4)"
     style="fill:#667b82;fill-rule:evenodd"
     d="m 61.97,127.4 55.48,-29.01 v 59.29 L 61.97,186.7"
     id="polyline917"
     inkscape:export-xdpi="300"
     inkscape:export-ydpi="300" />
  <path
     id="path919"
     d="M -1.3622351e-5,431.3207 145.16024,507.18382 V 662.28465 M -1.3622351e-5,431.3207 V 586.42154 L 145.16024,662.28465"
     class="cls-1"
     style="fill:#489bb6;stroke-width:2.61596966"
     inkscape:connector-curvature="0"
     inkscape:export-xdpi="300"
     inkscape:export-ydpi="300" />
  <path
     id="path921"
     d="M 161.66684,-3.4699968e-4 306.82709,75.862759 V 230.93745 M 161.66684,-3.4699968e-4 V 155.10048 l 145.16025,75.86313"
     class="cls-2"
     style="fill:#eb8f41;stroke-width:2.61596966"
     inkscape:connector-curvature="0"
     inkscape:export-xdpi="300"
     inkscape:export-ydpi="300" />
  <path
     id="path931"
     d="m 1314.0632,570.75189 h 27.7032 c 46.5381,0 43.0064,37.93154 42.1171,44.47147 -0.8895,6.53992 -8.2142,44.47148 -54.7785,44.47148 h -27.7032 z m -3.2438,81.38281 h 17.2132 c 23.7791,0 43.8958,-11.43179 47.5583,-36.91134 3.6623,-25.47954 -13.2893,-36.93748 -37.0685,-36.93748 h -17.2391 z"
     class="cls-4"
     style="fill:#7c868d;stroke-width:2.61596966"
     inkscape:connector-curvature="0"
     inkscape:export-xdpi="300"
     inkscape:export-ydpi="300" />
  <path
     id="path933"
     d="m 1447.2683,648.76008 a 33.562888,33.562888 0 0 1 -27.0752,12.45202 c -17.8409,0 -27.703,-12.68744 -25.1918,-30.65917 a 34.321521,34.321521 0 0 1 33.5367,-30.39755 c 17.9716,0 25.4272,13.68153 23.5436,27.10145 l -0.7584,5.23192 h -49.1017 c -0.8895,6.27834 1.3863,21.84335 19.0964,21.84335 a 27.44152,27.44152 0 0 0 20.9278,-10.28076 z m -2.616,-22.9682 c 1.3866,-10.30693 -6.3305,-18.83498 -17.5792,-18.83498 -16.5852,0 -23.5438,15.82661 -23.91,18.83498 z"
     class="cls-4"
     style="fill:#7c868d;stroke-width:2.61596966"
     inkscape:connector-curvature="0"
     inkscape:export-xdpi="300"
     inkscape:export-ydpi="300" />
  <path
     id="path935"
     d="m 1479.1309,564.73515 h 7.5864 l -13.3939,94.93354 h -7.6125 z"
     class="cls-4"
     style="fill:#7c868d;stroke-width:2.61596966"
     inkscape:connector-curvature="0"
     inkscape:export-xdpi="300"
     inkscape:export-ydpi="300" />
  <path
     id="path937"
     d="m 1508.2206,564.73515 h 7.5863 l -6.5663,47.08745 h 0.2356 a 25.819618,25.819618 0 0 1 21.634,-11.66722 c 18.3118,0 20.5093,12.29504 18.7303,24.98251 l -4.9443,34.5308 h -7.5863 l 4.8136,-34.16457 c 1.3863,-9.4175 0,-18.57338 -12.0073,-18.57338 -11.275,0 -21.3987,7.84791 -23.6746,23.72684 l -4.0286,29.01111 h -7.5863 z"
     class="cls-4"
     style="fill:#7c868d;stroke-width:2.61596966"
     inkscape:connector-curvature="0"
     inkscape:export-xdpi="300"
     inkscape:export-ydpi="300" />
  <path
     id="path939"
     d="m 1574.64,601.67264 h 7.5863 l -8.2405,58.0222 h -7.5863 z m 7.8478,-28.61871 a 4.8395437,4.8395437 0 0 1 4.9443,5.65049 6.8799998,6.8799998 0 0 1 -6.5922,5.6505 4.6825853,4.6825853 0 0 1 -4.7874,-5.6505 6.5922432,6.5922432 0 0 1 6.4091,-5.67664 z"
     class="cls-4"
     style="fill:#7c868d;stroke-width:2.61596966"
     inkscape:connector-curvature="0"
     inkscape:export-xdpi="300"
     inkscape:export-ydpi="300" />
</svg>
